<?xml version="1.0" standalone="no"?>
<!DOCTYPE svg PUBLIC "-//W3C//DTD SVG 20010904//EN"
 "http://www.w3.org/TR/2001/REC-SVG-20010904/DTD/svg10.dtd">
<svg version="1.0" xmlns="http://www.w3.org/2000/svg"
 width="700.000000pt" height="700.000000pt" viewBox="0 0 700.000000 700.000000"
 preserveAspectRatio="xMidYMid meet">
<metadata>
Created by potrace 1.14, written by Peter Selinger 2001-2017
</metadata>
<g transform="translate(0.000000,700.000000) scale(0.100000,-0.100000)"
fill="#000000" stroke="none">
<path d="M0 3500 l0 -3500 3500 0 3500 0 0 3500 0 3500 -3500 0 -3500 0 0
-3500z m3082 1863 l287 -288 -100 -620 c-55 -341 -102 -621 -103 -622 -2 -2
-281 -48 -622 -103 l-619 -100 -287 287 c-159 159 -288 290 -288 293 0 3 276
49 613 104 336 54 615 101 619 105 3 3 51 282 105 618 54 337 100 613 103 613
3 0 134 -129 292 -287z m1232 -325 c54 -337 101 -616 105 -620 3 -3 282 -51
618 -105 337 -54 613 -100 613 -103 0 -3 -129 -134 -287 -292 l-288 -287 -620
100 c-341 56 -621 102 -622 103 -2 1 -48 281 -103 622 l-99 619 287 288 c158
158 289 287 292 287 3 0 50 -276 104 -612z m-1744 -1773 c327 -53 595 -97 597
-98 1 -2 48 -282 103 -623 l100 -619 -288 -287 c-158 -159 -289 -288 -292
-288 -3 0 -50 276 -104 613 -54 336 -101 615 -105 619 -3 3 -280 50 -616 104
-335 54 -612 99 -615 101 -2 2 126 134 285 294 254 253 293 289 315 284 14 -3
293 -48 620 -100z m2795 -185 c159 -159 287 -291 285 -293 -3 -2 -133 -25
-290 -50 -157 -25 -431 -69 -610 -98 -179 -28 -328 -54 -332 -58 -3 -3 -50
-282 -105 -618 -54 -337 -100 -613 -103 -613 -3 0 -134 129 -292 288 l-287
287 100 620 c55 341 101 621 103 622 2 2 1203 199 1231 202 6 1 140 -129 300
-289z"/>
</g>
</svg>
