<svg width="56" height="56" viewBox="0 0 56 56" fill="none" xmlns="http://www.w3.org/2000/svg">
<rect width="56" height="56" rx="12" fill="#61D2C9" fill-opacity="0.16"/>
<path fill-rule="evenodd" clip-rule="evenodd" d="M19.5625 19.5625C19.5625 14.9026 23.3401 11.125 28 11.125C32.6599 11.125 36.4375 14.9026 36.4375 19.5625V23H37.375C39.4461 23 41.125 24.6789 41.125 26.75V39.25C41.125 41.3211 39.4461 43 37.375 43H18.625C16.5539 43 14.875 41.3211 14.875 39.25V26.75C14.875 24.6789 16.5539 23 18.625 23H19.5625V19.5625ZM34.5625 19.5625V23H21.4375V19.5625C21.4375 15.9381 24.3756 13 28 13C31.6244 13 34.5625 15.9381 34.5625 19.5625ZM18.625 24.875H19.5625H21.4375H34.5625H36.4375H37.375C38.4105 24.875 39.25 25.7145 39.25 26.75V39.25C39.25 40.2855 38.4105 41.125 37.375 41.125H18.625C17.5895 41.125 16.75 40.2855 16.75 39.25V26.75C16.75 25.7145 17.5895 24.875 18.625 24.875ZM28.9375 32.7492C29.4979 32.425 29.875 31.819 29.875 31.125C29.875 30.0895 29.0355 29.25 28 29.25C26.9645 29.25 26.125 30.0895 26.125 31.125C26.125 31.819 26.5021 32.425 27.0625 32.7492V35.5C27.0625 36.0178 27.4822 36.4375 28 36.4375C28.5178 36.4375 28.9375 36.0178 28.9375 35.5V32.7492Z" fill="#00A599"/>
</svg>
