<svg width="256" height="333" viewBox="0 0 256 333" fill="none" xmlns="http://www.w3.org/2000/svg">
<g filter="url(#filter0_d_0_1555)">
<rect x="28.551" y="22" width="199.449" height="276.033" rx="12" fill="white"/>
<rect x="58.8541" y="80.9531" width="37.4656" height="37.4656" rx="18.7328" fill="#8E9499" fill-opacity="0.12"/>
<path d="M77.3813 105.186H79.151V95.0925H77.3673L74.7304 96.9461V98.6038L77.3394 96.8132H77.3813V105.186Z" fill="#00A599"/>
<rect x="109.543" y="80.9531" width="37.4656" height="37.4656" rx="18.7328" fill="#8E9499" fill-opacity="0.12"/>
<path d="M124.524 105.186H131.617V103.71H126.909V103.633L129.133 101.521C130.91 99.8139 131.463 99.0095 131.463 97.8204V97.8064C131.463 96.1417 130.05 94.9176 128.028 94.9176C125.979 94.9176 124.426 96.2396 124.426 98.0862V98.1352H126.119V98.0862C126.14 97.114 126.923 96.3655 128.042 96.3655C129.015 96.3655 129.693 97.009 129.7 97.9113V97.9253C129.7 98.6738 129.413 99.1844 128.091 100.478L124.524 103.955V105.186Z" fill="#00A599"/>
<rect x="160.231" y="80.9531" width="37.4656" height="37.4656" rx="18.7328" fill="#8E9499" fill-opacity="0.12"/>
<path d="M178.843 105.361C181.074 105.361 182.613 104.13 182.613 102.374V102.36C182.613 100.961 181.627 100.08 180.137 99.9398V99.9048C181.347 99.653 182.256 98.8206 182.256 97.5686V97.5546C182.256 95.9878 180.906 94.9176 178.822 94.9176C176.786 94.9176 175.409 96.0508 175.262 97.7575L175.255 97.8414H176.933L176.94 97.7714C177.031 96.9041 177.759 96.3515 178.822 96.3515C179.906 96.3515 180.522 96.8831 180.522 97.7924V97.8064C180.522 98.6877 179.78 99.3173 178.668 99.3173H177.514V100.66H178.71C179.997 100.66 180.78 101.248 180.78 102.311V102.325C180.78 103.241 180.004 103.885 178.836 103.885C177.654 103.885 176.87 103.29 176.773 102.472L176.766 102.395H175.038L175.045 102.479C175.185 104.172 176.626 105.361 178.843 105.361Z" fill="#00A599"/>
<rect x="58.8541" y="131.642" width="37.4656" height="37.4656" rx="18.7328" fill="#8E9499" fill-opacity="0.12"/>
<path d="M78.1406 155.875H79.8613V153.937H81.2322V152.454H79.8613V145.781H77.2943L73.1045 152.398V153.937H78.1406V155.875ZM74.7272 152.496V152.447L78.1266 147.145H78.1686V152.496H74.7272Z" fill="#00A599"/>
<rect x="109.543" y="131.642" width="37.4656" height="37.4656" rx="18.7328" fill="black" fill-opacity="0.1"/>
<path d="M128.252 156.049C130.483 156.049 132.043 154.622 132.043 152.545V152.531C132.043 150.615 130.658 149.223 128.735 149.223C127.721 149.223 126.888 149.621 126.448 150.3H126.413L126.692 147.257H131.449V145.781H125.251L124.769 151.65H126.343C126.462 151.426 126.629 151.23 126.818 151.076C127.203 150.754 127.7 150.58 128.273 150.58C129.455 150.58 130.302 151.405 130.302 152.559V152.573C130.302 153.755 129.469 154.58 128.266 154.58C127.203 154.58 126.434 153.93 126.287 153.084L126.28 153.035H124.587L124.594 153.126C124.727 154.797 126.154 156.049 128.252 156.049Z" fill="#006E6A"/>
<rect x="160.231" y="131.642" width="37.4656" height="37.4656" rx="18.7328" fill="#8E9499" fill-opacity="0.12"/>
<path d="M178.637 156.049C180.812 156.049 182.407 154.587 182.407 152.552V152.538C182.407 150.643 181.043 149.244 179.098 149.244C177.727 149.244 176.72 149.943 176.321 150.866H176.286C176.286 150.754 176.286 150.649 176.293 150.545C176.363 148.635 177.042 147.082 178.665 147.082C179.567 147.082 180.19 147.53 180.455 148.222L180.483 148.285H182.274L182.26 148.208C181.938 146.684 180.546 145.606 178.679 145.606C176.105 145.606 174.559 147.6 174.559 150.936V150.95C174.559 154.49 176.405 156.049 178.637 156.049ZM176.594 152.58V152.573C176.594 151.447 177.476 150.636 178.63 150.636C179.784 150.636 180.63 151.454 180.63 152.601V152.615C180.63 153.706 179.735 154.574 178.609 154.574C177.483 154.574 176.594 153.699 176.594 152.58Z" fill="#00A599"/>
<rect x="58.8541" y="182.331" width="37.4656" height="37.4656" rx="18.7328" fill="#8E9499" fill-opacity="0.12"/>
<path d="M74.3809 206.563H76.2694L80.5851 197.974V196.47H73.5625V197.946H78.8085V197.981L74.3809 206.563Z" fill="#00A599"/>
<rect x="109.543" y="182.331" width="37.4656" height="37.4656" rx="18.7328" fill="#8E9499" fill-opacity="0.12"/>
<path d="M127.794 206.738C130.102 206.738 131.718 205.535 131.718 203.814V203.8C131.718 202.52 130.781 201.527 129.445 201.254V201.212C130.592 200.905 131.347 200.065 131.347 198.988V198.974C131.347 197.428 129.879 196.295 127.794 196.295C125.717 196.295 124.241 197.428 124.241 198.974V198.988C124.241 200.065 124.996 200.905 126.143 201.212V201.254C124.807 201.527 123.877 202.52 123.877 203.8V203.814C123.877 205.535 125.486 206.738 127.794 206.738ZM127.794 200.639C126.745 200.639 126.024 200.03 126.024 199.156V199.142C126.024 198.268 126.752 197.659 127.794 197.659C128.836 197.659 129.564 198.268 129.564 199.142V199.156C129.564 200.03 128.843 200.639 127.794 200.639ZM127.794 205.36C126.591 205.36 125.731 204.668 125.731 203.702V203.688C125.731 202.716 126.577 202.017 127.794 202.017C129.011 202.017 129.858 202.716 129.858 203.688V203.702C129.858 204.668 129.004 205.36 127.794 205.36Z" fill="#00A599"/>
<rect x="160.231" y="182.331" width="37.4656" height="37.4656" rx="18.7328" fill="#8E9499" fill-opacity="0.12"/>
<path d="M178.455 196.295C176.279 196.295 174.678 197.757 174.678 199.792V199.806C174.678 201.702 176.049 203.101 177.993 203.101C179.357 203.101 180.364 202.401 180.763 201.478H180.805C180.805 201.59 180.798 201.695 180.791 201.8C180.721 203.709 180.043 205.262 178.42 205.262C177.518 205.262 176.902 204.815 176.629 204.122L176.608 204.059H174.818L174.832 204.136C175.146 205.661 176.545 206.738 178.413 206.738C180.987 206.738 182.533 204.745 182.533 201.408V201.394C182.533 197.855 180.679 196.295 178.455 196.295ZM178.455 201.709C177.308 201.709 176.454 200.891 176.454 199.743V199.729C176.454 198.638 177.357 197.771 178.476 197.771C179.609 197.771 180.49 198.645 180.49 199.764V199.771C180.49 200.898 179.609 201.709 178.455 201.709Z" fill="#00A599"/>
<rect x="109.543" y="233.019" width="37.4656" height="37.4656" rx="18.7328" fill="#8E9499" fill-opacity="0.12"/>
<path d="M127.843 257.427C130.312 257.427 131.809 255.419 131.809 252.209V252.195C131.809 248.984 130.312 246.984 127.843 246.984C125.367 246.984 123.877 248.984 123.877 252.195V252.209C123.877 255.419 125.367 257.427 127.843 257.427ZM127.843 255.951C126.479 255.951 125.696 254.538 125.696 252.209V252.195C125.696 249.866 126.479 248.467 127.843 248.467C129.2 248.467 129.99 249.866 129.99 252.195V252.209C129.99 254.538 129.2 255.951 127.843 255.951Z" fill="#00A599"/>
<g clip-path="url(#clip0_0_1555)">
<path fill-rule="evenodd" clip-rule="evenodd" d="M176.248 246.793C175.88 246.793 175.536 246.977 175.331 247.284L172.556 251.446C172.433 251.631 172.433 251.872 172.556 252.058L175.331 256.22C175.536 256.526 175.88 256.711 176.248 256.711H184.474C185.083 256.711 185.576 256.217 185.576 255.609V247.895C185.576 247.287 185.083 246.793 184.474 246.793H176.248ZM177.434 249.119C177.67 248.883 178.054 248.883 178.291 249.119L180.066 250.895L181.842 249.119C182.078 248.883 182.462 248.883 182.699 249.119C182.935 249.356 182.935 249.74 182.699 249.977L180.923 251.752L182.699 253.527C182.935 253.764 182.935 254.148 182.699 254.384C182.462 254.621 182.078 254.621 181.842 254.384L180.066 252.609L178.291 254.384C178.054 254.621 177.67 254.621 177.434 254.384C177.197 254.148 177.197 253.764 177.434 253.527L179.209 251.752L177.434 249.977C177.197 249.74 177.197 249.356 177.434 249.119Z" fill="#8E9499"/>
</g>
<circle cx="101.554" cy="54.5068" r="4.40771" fill="#00A599"/>
<circle cx="119.185" cy="54.5068" r="4.13223" stroke="#8E9499" stroke-width="0.550964"/>
<circle cx="136.815" cy="54.5068" r="4.13223" stroke="#8E9499" stroke-width="0.550964"/>
<circle cx="154.446" cy="54.5068" r="4.13223" stroke="#8E9499" stroke-width="0.550964"/>
</g>
<defs>
<filter id="filter0_d_0_1555" x="0" y="0" width="256" height="332.033" filterUnits="userSpaceOnUse" color-interpolation-filters="sRGB">
<feFlood flood-opacity="0" result="BackgroundImageFix"/>
<feColorMatrix in="SourceAlpha" type="matrix" values="0 0 0 0 0 0 0 0 0 0 0 0 0 0 0 0 0 0 127 0" result="hardAlpha"/>
<feOffset dy="6"/>
<feGaussianBlur stdDeviation="14"/>
<feComposite in2="hardAlpha" operator="out"/>
<feColorMatrix type="matrix" values="0 0 0 0 0.551302 0 0 0 0 0.55976 0 0 0 0 0.604167 0 0 0 0.16 0"/>
<feBlend mode="normal" in2="BackgroundImageFix" result="effect1_dropShadow_0_1555"/>
<feBlend mode="normal" in="SourceGraphic" in2="effect1_dropShadow_0_1555" result="shape"/>
</filter>
<clipPath id="clip0_0_1555">
<rect width="13.2231" height="13.2231" fill="white" transform="translate(172.353 245.14)"/>
</clipPath>
</defs>
</svg>
