<svg width="56" height="56" viewBox="0 0 56 56" fill="none" xmlns="http://www.w3.org/2000/svg">
<rect width="56" height="56" rx="12" fill="#61D2C9" fill-opacity="0.16"/>
<path fill-rule="evenodd" clip-rule="evenodd" d="M16.125 18H39.875C41.6009 18 43 19.3991 43 21.125V35.5C43 37.2259 41.6009 38.625 39.875 38.625H16.125C14.3991 38.625 13 37.2259 13 35.5V21.125C13 19.3991 14.3991 18 16.125 18ZM11.125 21.125C11.125 18.3636 13.3636 16.125 16.125 16.125H39.875C42.6364 16.125 44.875 18.3636 44.875 21.125V35.5C44.875 38.2614 42.6364 40.5 39.875 40.5H16.125C13.3636 40.5 11.125 38.2614 11.125 35.5V21.125ZM36.75 22.6875C36.2322 22.6875 35.8125 23.1072 35.8125 23.625C35.8125 24.1428 36.2322 24.5625 36.75 24.5625H39.875C40.3928 24.5625 40.8125 24.1428 40.8125 23.625C40.8125 23.1072 40.3928 22.6875 39.875 22.6875H36.75ZM28.9375 23.625C28.9375 23.1072 29.3572 22.6875 29.875 22.6875H33C33.5178 22.6875 33.9375 23.1072 33.9375 23.625C33.9375 24.1428 33.5178 24.5625 33 24.5625H29.875C29.3572 24.5625 28.9375 24.1428 28.9375 23.625ZM23 22.6875C22.4822 22.6875 22.0625 23.1072 22.0625 23.625C22.0625 24.1428 22.4822 24.5625 23 24.5625H26.125C26.6428 24.5625 27.0625 24.1428 27.0625 23.625C27.0625 23.1072 26.6428 22.6875 26.125 22.6875H23ZM15.1875 23.625C15.1875 23.1072 15.6072 22.6875 16.125 22.6875H19.25C19.7678 22.6875 20.1875 23.1072 20.1875 23.625C20.1875 24.1428 19.7678 24.5625 19.25 24.5625H16.125C15.6072 24.5625 15.1875 24.1428 15.1875 23.625ZM35.5 30.8125C33.9467 30.8125 32.6875 32.0717 32.6875 33.625C32.6875 35.1783 33.9467 36.4375 35.5 36.4375H38C39.5533 36.4375 40.8125 35.1783 40.8125 33.625C40.8125 32.0717 39.5533 30.8125 38 30.8125H35.5ZM34.5625 33.625C34.5625 33.1072 34.9822 32.6875 35.5 32.6875H38C38.5178 32.6875 38.9375 33.1072 38.9375 33.625C38.9375 34.1428 38.5178 34.5625 38 34.5625H35.5C34.9822 34.5625 34.5625 34.1428 34.5625 33.625Z" fill="#00A599"/>
</svg>
