<svg width="56" height="56" viewBox="0 0 56 56" fill="none" xmlns="http://www.w3.org/2000/svg">
<rect width="56" height="56" rx="12" fill="#61D2C9" fill-opacity="0.16"/>
<path fill-rule="evenodd" clip-rule="evenodd" d="M28.75 15H27.25C26.6977 15 26.25 15.4477 26.25 16V40C26.25 40.5523 26.6977 41 27.25 41H28.75C29.3023 41 29.75 40.5523 29.75 40V16C29.75 15.4477 29.3023 15 28.75 15ZM27.25 13C25.5931 13 24.25 14.3431 24.25 16V40C24.25 41.6569 25.5931 43 27.25 43H28.75C30.4069 43 31.75 41.6569 31.75 40V16C31.75 14.3431 30.4069 13 28.75 13H27.25ZM17.5 26.25H16C15.4477 26.25 15 26.6977 15 27.25V40C15 40.5523 15.4477 41 16 41H17.5C18.0523 41 18.5 40.5523 18.5 40V27.25C18.5 26.6977 18.0523 26.25 17.5 26.25ZM16 24.25C14.3431 24.25 13 25.5931 13 27.25V40C13 41.6569 14.3431 43 16 43H17.5C19.1569 43 20.5 41.6569 20.5 40V27.25C20.5 25.5931 19.1569 24.25 17.5 24.25H16ZM38.5 20.625H40C40.5523 20.625 41 21.0727 41 21.625V40C41 40.5523 40.5523 41 40 41H38.5C37.9477 41 37.5 40.5523 37.5 40V21.625C37.5 21.0727 37.9477 20.625 38.5 20.625ZM35.5 21.625C35.5 19.9681 36.8431 18.625 38.5 18.625H40C41.6569 18.625 43 19.9681 43 21.625V40C43 41.6569 41.6569 43 40 43H38.5C36.8431 43 35.5 41.6569 35.5 40V21.625Z" fill="#00A599"/>
</svg>
