<svg width="38" height="36" viewBox="0 0 38 36" fill="none" xmlns="http://www.w3.org/2000/svg">
<rect x="0.781342" y="0.773438" width="36.672" height="34.4533" rx="8" fill="#61D2C9" fill-opacity="0.16"/>
<path d="M20.237 19.5503C20.237 19.9088 20.0685 20.228 19.8064 20.4329V21.8759C19.8064 22.2565 19.4979 22.565 19.1174 22.565C18.7368 22.565 18.4283 22.2565 18.4283 21.8759V20.433C18.1661 20.2281 17.9976 19.9089 17.9976 19.5503C17.9976 18.9319 18.4989 18.4306 19.1173 18.4306C19.7357 18.4306 20.237 18.9319 20.237 19.5503Z" fill="#D93044"/>
<path fill-rule="evenodd" clip-rule="evenodd" d="M16.3592 12.1882C15.9378 13.1716 15.9304 14.3274 15.9304 14.9852V15.4159H23.8547C25.2818 15.4159 26.4387 16.5728 26.4387 17.9999V23.1679C26.4387 24.595 25.2818 25.7519 23.8547 25.7519H14.38C12.9529 25.7519 11.796 24.595 11.796 23.1679V17.9999C11.796 16.5728 12.9529 15.4159 14.38 15.4159H14.5523L14.5523 14.9605C14.5522 14.3145 14.552 12.9065 15.0925 11.6453C15.372 10.9932 15.8063 10.3537 16.48 9.87953C17.1579 9.40248 18.0284 9.12817 19.1174 9.12817C20.6442 9.12817 21.7205 9.66862 22.4372 10.499C23.1297 11.3013 23.4284 12.307 23.5634 13.1541C23.6233 13.5299 23.3672 13.8831 22.9914 13.943C22.6156 14.003 22.2624 13.7469 22.2025 13.371C22.0864 12.6429 21.8484 11.9259 21.3939 11.3994C20.9637 10.9009 20.2828 10.5063 19.1174 10.5063C18.2684 10.5063 17.6853 10.7165 17.2731 11.0066C16.8567 11.2996 16.5642 11.7098 16.3592 12.1882ZM14.38 16.7079C13.6665 16.7079 13.088 17.2864 13.088 17.9999V23.1679C13.088 23.8815 13.6665 24.4599 14.38 24.4599H23.8547C24.5682 24.4599 25.1467 23.8815 25.1467 23.1679V17.9999C25.1467 17.2864 24.5682 16.7079 23.8547 16.7079H14.38Z" fill="#D93044"/>
</svg>
