<svg width="56" height="56" viewBox="0 0 56 56" fill="none" xmlns="http://www.w3.org/2000/svg">
<rect width="56" height="56" rx="12" fill="#61D2C9" fill-opacity="0.16"/>
<path fill-rule="evenodd" clip-rule="evenodd" d="M41.125 16.75H14.875C13.8395 16.75 13 17.5895 13 18.625V37.375C13 38.4105 13.8395 39.25 14.875 39.25H41.125C42.1605 39.25 43 38.4105 43 37.375V18.625C43 17.5895 42.1605 16.75 41.125 16.75ZM14.875 14.875C12.8039 14.875 11.125 16.5539 11.125 18.625V37.375C11.125 39.4461 12.8039 41.125 14.875 41.125H41.125C43.1961 41.125 44.875 39.4461 44.875 37.375V18.625C44.875 16.5539 43.1961 14.875 41.125 14.875H14.875ZM17.6875 29.875C18.723 29.875 19.5625 29.0355 19.5625 28C19.5625 26.9645 18.723 26.125 17.6875 26.125C16.652 26.125 15.8125 26.9645 15.8125 28C15.8125 29.0355 16.652 29.875 17.6875 29.875ZM24.5625 29.875C25.598 29.875 26.4375 29.0355 26.4375 28C26.4375 26.9645 25.598 26.125 24.5625 26.125C23.527 26.125 22.6875 26.9645 22.6875 28C22.6875 29.0355 23.527 29.875 24.5625 29.875ZM31.4375 29.875C32.473 29.875 33.3125 29.0355 33.3125 28C33.3125 26.9645 32.473 26.125 31.4375 26.125C30.402 26.125 29.5625 26.9645 29.5625 28C29.5625 29.0355 30.402 29.875 31.4375 29.875ZM38.3125 29.875C39.348 29.875 40.1875 29.0355 40.1875 28C40.1875 26.9645 39.348 26.125 38.3125 26.125C37.277 26.125 36.4375 26.9645 36.4375 28C36.4375 29.0355 37.277 29.875 38.3125 29.875Z" fill="#00A599"/>
</svg>
