<svg width="56" height="56" viewBox="0 0 56 56" fill="none" xmlns="http://www.w3.org/2000/svg">
<rect width="56" height="56" rx="12" fill="url(#paint0_linear_0_1623)" fill-opacity="0.1"/>
<path fill-rule="evenodd" clip-rule="evenodd" d="M18.9375 15.5C18.9375 13.2563 20.7563 11.4375 23 11.4375H33C35.2437 11.4375 37.0625 13.2563 37.0625 15.5V40.5C37.0625 42.7437 35.2437 44.5625 33 44.5625H23C20.7563 44.5625 18.9375 42.7437 18.9375 40.5V15.5ZM23 13.3125C21.7919 13.3125 20.8125 14.2919 20.8125 15.5V40.5C20.8125 41.7081 21.7919 42.6875 23 42.6875H33C34.2081 42.6875 35.1875 41.7081 35.1875 40.5V15.5C35.1875 14.2919 34.2081 13.3125 33 13.3125H31.125V13.5625C31.125 14.1148 30.6773 14.5625 30.125 14.5625H25.875C25.3227 14.5625 24.875 14.1148 24.875 13.5625V13.3125H23ZM30.3606 23.7644C29.5342 22.9381 28.1915 22.6881 27.1053 22.8689C26.0278 23.0482 24.812 23.751 24.812 25.1876C24.812 25.5759 24.8971 25.9176 25.0391 26.2187H24.4062C24.1128 26.2187 23.8749 26.4565 23.8749 26.7499C23.8749 27.0433 24.1128 27.2812 24.4062 27.2812H25.9175C26.3167 27.5999 26.7893 27.8629 27.2388 28.0937H24.4062C24.1128 28.0937 23.8749 28.3315 23.8749 28.6249C23.8749 28.9183 24.1128 29.1562 24.4062 29.1562H29.1347C29.1409 29.1611 29.147 29.166 29.1531 29.171C29.5143 29.4642 29.6557 29.7263 29.6557 30.0311C29.6557 30.4193 29.5163 30.6691 29.311 30.8477C29.0862 31.0432 28.7394 31.1869 28.3017 31.2437C27.8686 31.2999 27.3934 31.264 26.9637 31.1474C26.528 31.0292 26.1888 30.842 25.9856 30.6389C25.7171 30.3704 25.2818 30.3704 25.0133 30.639C24.7448 30.9075 24.7449 31.3428 25.0134 31.6112C25.4352 32.0329 26.014 32.3144 26.6036 32.4744C27.1993 32.636 27.8569 32.6879 28.4785 32.6073C29.0955 32.5273 29.7253 32.3097 30.2134 31.8851C30.7209 31.4436 31.0307 30.8146 31.0307 30.0311C31.0307 29.7055 30.9653 29.4153 30.8546 29.1562H31.2812C31.5746 29.1562 31.8124 28.9183 31.8124 28.6249C31.8124 28.3315 31.5746 28.0937 31.2812 28.0937H30.0076C29.6165 27.7787 29.1397 27.5149 28.6825 27.2812H31.2204C31.5138 27.2812 31.7517 27.0433 31.7517 26.7499C31.7517 26.4565 31.5138 26.2187 31.2204 26.2187H26.7904C26.7604 26.195 26.7313 26.1712 26.703 26.147C26.3477 25.8432 26.187 25.5499 26.187 25.1876C26.187 24.7487 26.5336 24.358 27.3311 24.2252C28.12 24.0939 28.9647 24.3131 29.3884 24.7367C29.6569 25.0051 30.0922 25.0051 30.3606 24.7366C30.6291 24.4681 30.6291 24.0328 30.3606 23.7644Z" fill="#00A599"/>
<defs>
<linearGradient id="paint0_linear_0_1623" x1="0" y1="0" x2="56" y2="56" gradientUnits="userSpaceOnUse">
<stop stop-color="#00A599"/>
<stop offset="1" stop-color="#0093A3"/>
</linearGradient>
</defs>
</svg>
