<svg width="56" height="56" viewBox="0 0 56 56" fill="none" xmlns="http://www.w3.org/2000/svg">
<rect width="56" height="56" rx="12" fill="url(#paint0_linear_0_1587)" fill-opacity="0.1"/>
<path fill-rule="evenodd" clip-rule="evenodd" d="M36.1251 27.375C39.922 27.375 43.0001 24.297 43.0001 20.5C43.0001 16.703 39.922 13.625 36.1251 13.625C32.3281 13.625 29.2501 16.703 29.2501 20.5C29.2501 24.297 32.3281 27.375 36.1251 27.375ZM36.1251 29.25C40.9576 29.25 44.8751 25.3325 44.8751 20.5C44.8751 15.6675 40.9576 11.75 36.1251 11.75C31.2926 11.75 27.3751 15.6675 27.3751 20.5C27.3751 25.3325 31.2926 29.25 36.1251 29.25ZM20.5001 42.375C24.297 42.375 27.3751 39.297 27.3751 35.5C27.3751 31.703 24.297 28.625 20.5001 28.625C16.7031 28.625 13.6251 31.703 13.6251 35.5C13.6251 39.297 16.7031 42.375 20.5001 42.375ZM20.5001 44.25C25.3326 44.25 29.2501 40.3325 29.2501 35.5C29.2501 30.6675 25.3326 26.75 20.5001 26.75C15.6676 26.75 11.7501 30.6675 11.7501 35.5C11.7501 40.3325 15.6676 44.25 20.5001 44.25ZM20.8551 32.0551C20.8551 31.7351 20.7101 31.5751 20.4201 31.5751C20.1301 31.5751 19.9851 31.7351 19.9851 32.0551V32.3251C19.4351 32.4051 18.9951 32.6001 18.6651 32.9101C18.3351 33.2201 18.1701 33.6151 18.1701 34.0951C18.1701 34.5551 18.3201 34.9201 18.6201 35.1901C18.9301 35.4601 19.3851 35.6601 19.9851 35.7901V37.2301C19.6251 37.1401 19.3401 36.9951 19.1301 36.7951C19.0101 36.6851 18.8701 36.6301 18.7101 36.6301C18.5301 36.6301 18.3751 36.6951 18.2451 36.8251C18.1251 36.9451 18.0651 37.0851 18.0651 37.2451C18.0651 37.3951 18.1151 37.5301 18.2151 37.6501C18.6251 38.1001 19.2151 38.3701 19.9851 38.4601V39.2701C19.9851 39.5901 20.1301 39.7501 20.4201 39.7501C20.7101 39.7501 20.8551 39.5901 20.8551 39.2701V38.4601C21.4051 38.3801 21.8451 38.1751 22.1751 37.8451C22.5151 37.5151 22.6851 37.1051 22.6851 36.6151C22.6851 36.1951 22.5951 35.8651 22.4151 35.6251C22.2351 35.3851 22.0101 35.2051 21.7401 35.0851C21.4701 34.9651 21.2001 34.8751 20.9301 34.8151C20.9001 34.8151 20.8751 34.8101 20.8551 34.8001V33.5251C21.0651 33.5851 21.2601 33.6701 21.4401 33.7801C21.5501 33.8501 21.6701 33.8851 21.8001 33.8851C21.9601 33.8851 22.1001 33.8301 22.2201 33.7201C22.3501 33.6101 22.4151 33.4751 22.4151 33.3151C22.4151 33.1351 22.3301 32.9751 22.1601 32.8351C21.8201 32.5451 21.3851 32.3751 20.8551 32.3251V32.0551ZM20.8551 37.2601V35.9701C21.2551 36.0901 21.4551 36.3001 21.4551 36.6001C21.4551 36.7801 21.3951 36.9251 21.2751 37.0351C21.1651 37.1451 21.0251 37.2201 20.8551 37.2601ZM19.5651 33.6451C19.6751 33.5551 19.8151 33.4951 19.9851 33.4651V34.5901C19.5951 34.4401 19.4001 34.2501 19.4001 34.0201C19.4001 33.8601 19.4551 33.7351 19.5651 33.6451ZM32.7382 20.2199C32.7382 20.0999 32.7782 19.9999 32.8582 19.9199C32.9382 19.8399 33.0332 19.7999 33.1432 19.7999H33.4582C33.5882 19.0599 33.9232 18.4799 34.4632 18.0599C35.0132 17.6399 35.6932 17.4299 36.5032 17.4299C36.7532 17.4299 37.0082 17.4549 37.2682 17.5049C37.5382 17.5549 37.7832 17.6349 38.0032 17.7449C38.1132 17.8049 38.1932 17.8849 38.2432 17.9849C38.2932 18.0749 38.3182 18.1699 38.3182 18.2699C38.3182 18.4199 38.2632 18.5599 38.1532 18.6899C38.0432 18.8199 37.9032 18.8849 37.7332 18.8849C37.6532 18.8849 37.5682 18.8749 37.4782 18.8549C37.3082 18.7849 37.1232 18.7299 36.9232 18.6899C36.7232 18.6399 36.5482 18.6149 36.3982 18.6149C36.0082 18.6149 35.6682 18.7199 35.3782 18.9299C35.0982 19.1399 34.8982 19.4299 34.7782 19.7999H36.2932C36.4032 19.7999 36.4982 19.8399 36.5782 19.9199C36.6582 19.9999 36.6982 20.0999 36.6982 20.2199C36.6982 20.3399 36.6582 20.4399 36.5782 20.5199C36.4982 20.5999 36.4032 20.6399 36.2932 20.6399H34.6732C34.6832 20.7999 34.7082 20.9549 34.7482 21.1049H36.2932C36.4032 21.1049 36.4982 21.1499 36.5782 21.2399C36.6582 21.3199 36.6982 21.4199 36.6982 21.5399C36.6982 21.6599 36.6582 21.7599 36.5782 21.8399C36.5082 21.9099 36.4132 21.9449 36.2932 21.9449H35.1982C35.5182 22.2849 35.9482 22.4549 36.4882 22.4549C36.6982 22.4549 36.9282 22.4199 37.1782 22.3499C37.4282 22.2699 37.6282 22.1699 37.7782 22.0499C37.8882 21.9799 38.0032 21.9449 38.1232 21.9449C38.2832 21.9449 38.4132 22.0049 38.5132 22.1249C38.6132 22.2349 38.6632 22.3699 38.6632 22.5299C38.6632 22.7499 38.5682 22.9349 38.3782 23.0849C38.1982 23.2249 37.9232 23.3499 37.5532 23.4599C37.1832 23.5699 36.8232 23.6249 36.4732 23.6249C35.8432 23.6249 35.2832 23.4749 34.7932 23.1749C34.3132 22.8649 33.9532 22.4549 33.7132 21.9449H33.1432C33.0232 21.9449 32.9232 21.9099 32.8432 21.8399C32.7732 21.7599 32.7382 21.6599 32.7382 21.5399C32.7382 21.4199 32.7782 21.3199 32.8582 21.2399C32.9382 21.1499 33.0332 21.1049 33.1432 21.1049H33.4432C33.4232 20.9549 33.4082 20.7999 33.3982 20.6399H33.1432C33.0332 20.6399 32.9382 20.5999 32.8582 20.5199C32.7782 20.4399 32.7382 20.3399 32.7382 20.2199ZM14.5197 23.9822C15.8181 19.6196 19.1743 16.1457 23.4642 14.6848L22.6965 14.3269C22.2273 14.1081 22.0243 13.5503 22.2431 13.081C22.4619 12.6118 23.0197 12.4087 23.489 12.6276L26.3212 13.9482C26.5465 14.0533 26.7209 14.2436 26.8059 14.4773C26.891 14.7109 26.8797 14.9688 26.7746 15.1941L25.4539 18.0263C25.2351 18.4956 24.6773 18.6986 24.2081 18.4798C23.7388 18.261 23.5358 17.7032 23.7546 17.2339L24.1244 16.4409C20.3813 17.6953 17.4471 20.719 16.3168 24.5171C16.1691 25.0133 15.647 25.2959 15.1508 25.1482C14.6545 25.0005 14.372 24.4785 14.5197 23.9822ZM41.4797 32.0171C41.6274 31.5208 41.3448 30.9988 40.8486 30.8511C40.3523 30.7034 39.8303 30.986 39.6826 31.4822C38.5527 35.2789 35.6202 38.3018 31.879 39.557L32.2456 38.7709C32.4644 38.3016 32.2614 37.7438 31.7921 37.525C31.3229 37.3062 30.7651 37.5092 30.5463 37.9785L29.2256 40.8107C29.1205 41.036 29.1093 41.2939 29.1943 41.5275C29.2793 41.7612 29.4537 41.9515 29.6791 42.0566L32.5113 43.3772C32.9805 43.5961 33.5383 43.393 33.7571 42.9238C33.9759 42.4545 33.7729 41.8967 33.3037 41.6779L32.5288 41.3166C36.8218 39.857 40.1807 36.3819 41.4797 32.0171Z" fill="#00A599"/>
<defs>
<linearGradient id="paint0_linear_0_1587" x1="0" y1="0" x2="56" y2="56" gradientUnits="userSpaceOnUse">
<stop stop-color="#00A599"/>
<stop offset="1" stop-color="#0093A3"/>
</linearGradient>
</defs>
</svg>
