<svg width="56" height="56" viewBox="0 0 56 56" fill="none" xmlns="http://www.w3.org/2000/svg">
<rect width="56" height="56" rx="12" fill="url(#paint0_linear_0_1581)" fill-opacity="0.1"/>
<path fill-rule="evenodd" clip-rule="evenodd" d="M28.7575 12.9074C28.7575 12.3899 28.5275 12.1311 28.0675 12.1311C27.6075 12.1311 27.3775 12.3899 27.3775 12.9074V13.7124C26.3616 13.8465 25.5566 14.1915 24.9625 14.7474C24.3875 15.3032 24.1 16.0124 24.1 16.8749C24.1 17.4882 24.2629 17.9961 24.5887 18.3986C24.9146 18.8011 25.3266 19.1174 25.825 19.3474C26.3233 19.5774 26.8408 19.7499 27.3775 19.8649V23.4586C26.5533 23.2669 25.9208 22.9219 25.48 22.4236C25.4033 22.3086 25.2979 22.2319 25.1637 22.1936C25.0487 22.1361 24.9241 22.1074 24.79 22.1074C24.5408 22.1074 24.3204 22.2032 24.1287 22.3949C23.9371 22.5674 23.8412 22.7686 23.8412 22.9986C23.8412 23.2094 23.9083 23.4107 24.0425 23.6024C24.3875 24.0624 24.8571 24.4265 25.4512 24.6949C26.0454 24.944 26.6875 25.1069 27.3775 25.1836V26.7361C27.3775 27.2536 27.6075 27.5124 28.0675 27.5124C28.5275 27.5124 28.7575 27.2536 28.7575 26.7361V25.2124C29.85 25.1165 30.7316 24.7715 31.4025 24.1774C32.0925 23.564 32.4375 22.7878 32.4375 21.8486C32.4375 21.0628 32.2266 20.4399 31.805 19.9799C31.4025 19.5199 30.9137 19.1749 30.3387 18.9449C29.7829 18.7149 29.2558 18.5424 28.7575 18.4274V15.3511C29.39 15.4278 29.9458 15.6674 30.425 16.0699C30.6358 16.204 30.8466 16.2711 31.0575 16.2711C31.2875 16.2711 31.4887 16.1944 31.6612 16.0411C31.8337 15.8686 31.92 15.6674 31.92 15.4374C31.92 15.169 31.805 14.939 31.575 14.7474C30.8658 14.1149 29.9266 13.7603 28.7575 13.6836V12.9074ZM28.7575 23.5449V20.1524C29.275 20.2865 29.7062 20.4782 30.0512 20.7274C30.4154 20.9765 30.5975 21.3407 30.5975 21.8199C30.5975 22.2799 30.425 22.6632 30.08 22.9699C29.7541 23.2765 29.3133 23.4682 28.7575 23.5449ZM25.94 16.8461C25.94 16.0603 26.4191 15.5811 27.3775 15.4086V18.1111C26.9175 17.9769 26.5629 17.8236 26.3137 17.6511C26.0646 17.4594 25.94 17.1911 25.94 16.8461ZM44.6615 26.4665C43.6545 25.2078 41.8457 24.9415 40.5187 25.8567L33.9499 30.3869C33.4879 30.0543 32.9294 29.8485 32.3327 29.8172C30.9886 29.7467 29.3365 29.5943 28.2576 29.286C27.7444 29.1394 27.2848 28.9842 26.8408 28.8343L26.8408 28.8342C25.5382 28.3944 24.3701 27.9999 22.3751 27.9999C20.1315 27.9999 18.4688 28.8499 17.3648 29.7144C17.286 29.0999 16.761 28.6249 16.125 28.6249H12.375C11.6846 28.6249 11.125 29.1846 11.125 29.8749V41.1249C11.125 41.8153 11.6846 42.3749 12.375 42.3749H16.125C16.8154 42.3749 17.375 41.8153 17.375 41.1249V40.8123H29.8095C31.8939 40.8123 33.9045 40.0407 35.4539 38.6463L44.3177 30.6689C45.5273 29.5803 45.678 27.7373 44.6615 26.4665ZM17.375 38.9373V32.3531C17.4147 32.2997 17.463 32.2371 17.5201 32.1672C17.726 31.9151 18.0412 31.5738 18.4685 31.232C19.3184 30.5521 20.6023 29.8749 22.3751 29.8749C24.0428 29.8749 24.8676 30.1532 26.0701 30.559C26.544 30.7189 27.0766 30.8986 27.7425 31.0889C29.0465 31.4614 30.8895 31.619 32.2344 31.6896C32.8485 31.7219 33.3126 32.2184 33.3126 32.781C33.3126 33.3106 32.9112 33.7542 32.3841 33.8069L24.7818 34.5671C24.2666 34.6186 23.8907 35.078 23.9422 35.5932C23.9937 36.1084 24.4531 36.4843 24.9683 36.4328L32.5707 35.6726C34.0563 35.524 35.1876 34.2739 35.1876 32.781C35.1876 32.4741 35.1405 32.1796 35.0536 31.9034L41.5832 27.4002C42.1002 27.0436 42.805 27.1474 43.1973 27.6378C43.5934 28.133 43.5347 28.8511 43.0634 29.2752L34.1996 37.2527C32.9945 38.3372 31.4307 38.9373 29.8095 38.9373H17.375ZM15.5 30.4999V39.8748V40.4999H13V30.4999H15.5Z" fill="#00A599"/>
<defs>
<linearGradient id="paint0_linear_0_1581" x1="0" y1="0" x2="56" y2="56" gradientUnits="userSpaceOnUse">
<stop stop-color="#00A599"/>
<stop offset="1" stop-color="#0093A3"/>
</linearGradient>
</defs>
</svg>
