<svg width="56" height="56" viewBox="0 0 56 56" fill="none" xmlns="http://www.w3.org/2000/svg">
<rect width="56" height="56" rx="12" fill="url(#paint0_linear_0_1593)" fill-opacity="0.1"/>
<path fill-rule="evenodd" clip-rule="evenodd" d="M12.6875 15.5C12.6875 13.9467 13.9467 12.6875 15.5 12.6875H20.5C21.0178 12.6875 21.4375 13.1072 21.4375 13.625C21.4375 14.1428 21.0178 14.5625 20.5 14.5625H15.5C14.9822 14.5625 14.5625 14.9822 14.5625 15.5V20.5C14.5625 21.0178 14.1428 21.4375 13.625 21.4375C13.1072 21.4375 12.6875 21.0178 12.6875 20.5V15.5ZM34.5625 13.625C34.5625 13.1072 34.9822 12.6875 35.5 12.6875H40.5C42.0533 12.6875 43.3125 13.9467 43.3125 15.5V20.5C43.3125 21.0178 42.8928 21.4375 42.375 21.4375C41.8572 21.4375 41.4375 21.0178 41.4375 20.5V15.5C41.4375 14.9822 41.0178 14.5625 40.5 14.5625H35.5C34.9822 14.5625 34.5625 14.1428 34.5625 13.625ZM13.625 34.5625C14.1428 34.5625 14.5625 34.9822 14.5625 35.5V40.5C14.5625 41.0178 14.9822 41.4375 15.5 41.4375H20.5C21.0178 41.4375 21.4375 41.8572 21.4375 42.375C21.4375 42.8928 21.0178 43.3125 20.5 43.3125H15.5C13.9467 43.3125 12.6875 42.0533 12.6875 40.5V35.5C12.6875 34.9822 13.1072 34.5625 13.625 34.5625ZM42.375 34.5625C42.8928 34.5625 43.3125 34.9822 43.3125 35.5V40.5C43.3125 42.0533 42.0533 43.3125 40.5 43.3125H35.5C34.9822 43.3125 34.5625 42.8928 34.5625 42.375C34.5625 41.8572 34.9822 41.4375 35.5 41.4375H40.5C41.0178 41.4375 41.4375 41.0178 41.4375 40.5V35.5C41.4375 34.9822 41.8572 34.5625 42.375 34.5625ZM28 19.5625C26.1614 19.5625 24.5625 21.1795 24.5625 23.3125C24.5625 25.4455 26.1614 27.0625 28 27.0625C29.8386 27.0625 31.4375 25.4455 31.4375 23.3125C31.4375 21.1795 29.8386 19.5625 28 19.5625ZM22.6875 23.3125C22.6875 20.2679 25.0061 17.6875 28 17.6875C30.9939 17.6875 33.3125 20.2679 33.3125 23.3125C33.3125 26.3571 30.9939 28.9375 28 28.9375C25.0061 28.9375 22.6875 26.3571 22.6875 23.3125ZM21.4375 34.75C21.4375 34.4548 21.7216 33.9202 23.0296 33.4233C24.2454 32.9614 25.9978 32.6875 28 32.6875C30.0022 32.6875 31.7546 32.9614 32.9704 33.4233C34.2784 33.9202 34.5625 34.4548 34.5625 34.75C34.5625 35.1825 34.435 35.4224 34.257 35.5955C34.0478 35.799 33.683 35.9906 33.083 36.1356C31.8598 36.4314 30.1167 36.4375 28 36.4375C25.8833 36.4375 24.1402 36.4314 22.917 36.1356C22.317 35.9906 21.9522 35.799 21.743 35.5955C21.565 35.4224 21.4375 35.1825 21.4375 34.75ZM28 30.8125C25.86 30.8125 23.8625 31.1011 22.3638 31.6705C20.9574 32.2048 19.5625 33.1702 19.5625 34.75C19.5625 35.63 19.8547 36.3745 20.4357 36.9396C20.9856 37.4745 21.7191 37.775 22.4764 37.9581C23.943 38.3127 25.9085 38.3126 27.8998 38.3125H27.8999L28 38.3125L28.1001 38.3125H28.1002C30.0915 38.3126 32.057 38.3127 33.5236 37.9581C34.2809 37.775 35.0144 37.4745 35.5643 36.9396C36.1453 36.3745 36.4375 35.63 36.4375 34.75C36.4375 33.1702 35.0426 32.2048 33.6362 31.6705C32.1375 31.1011 30.14 30.8125 28 30.8125Z" fill="#00A599"/>
<defs>
<linearGradient id="paint0_linear_0_1593" x1="0" y1="0" x2="56" y2="56" gradientUnits="userSpaceOnUse">
<stop stop-color="#00A599"/>
<stop offset="1" stop-color="#0093A3"/>
</linearGradient>
</defs>
</svg>
