<svg width="56" height="56" viewBox="0 0 56 56" fill="none" xmlns="http://www.w3.org/2000/svg">
<rect width="56" height="56" rx="12" fill="url(#paint0_linear_0_1611)" fill-opacity="0.1"/>
<path fill-rule="evenodd" clip-rule="evenodd" d="M16.75 16.4375C15.8871 16.4375 15.1875 17.1371 15.1875 18C15.1875 18.8629 15.8871 19.5625 16.75 19.5625C17.6129 19.5625 18.3125 18.8629 18.3125 18C18.3125 17.1371 17.6129 16.4375 16.75 16.4375ZM13.3125 18C13.3125 16.1015 14.8515 14.5625 16.75 14.5625C18.6485 14.5625 20.1875 16.1015 20.1875 18C20.1875 19.8985 18.6485 21.4375 16.75 21.4375C14.8515 21.4375 13.3125 19.8985 13.3125 18ZM16.75 26.4375C15.8871 26.4375 15.1875 27.1371 15.1875 28C15.1875 28.8629 15.8871 29.5625 16.75 29.5625C17.6129 29.5625 18.3125 28.8629 18.3125 28C18.3125 27.1371 17.6129 26.4375 16.75 26.4375ZM13.3125 28C13.3125 26.1015 14.8515 24.5625 16.75 24.5625C18.6485 24.5625 20.1875 26.1015 20.1875 28C20.1875 29.8985 18.6485 31.4375 16.75 31.4375C14.8515 31.4375 13.3125 29.8985 13.3125 28ZM15.1875 38C15.1875 37.1371 15.8871 36.4375 16.75 36.4375C17.6129 36.4375 18.3125 37.1371 18.3125 38C18.3125 38.8629 17.6129 39.5625 16.75 39.5625C15.8871 39.5625 15.1875 38.8629 15.1875 38ZM16.75 34.5625C14.8515 34.5625 13.3125 36.1015 13.3125 38C13.3125 39.8985 14.8515 41.4375 16.75 41.4375C18.6485 41.4375 20.1875 39.8985 20.1875 38C20.1875 36.1015 18.6485 34.5625 16.75 34.5625ZM21.4375 16.125C21.4375 15.6072 21.8572 15.1875 22.375 15.1875H41.75C42.2678 15.1875 42.6875 15.6072 42.6875 16.125C42.6875 16.6428 42.2678 17.0625 41.75 17.0625H22.375C21.8572 17.0625 21.4375 16.6428 21.4375 16.125ZM22.375 25.1875C21.8572 25.1875 21.4375 25.6072 21.4375 26.125C21.4375 26.6428 21.8572 27.0625 22.375 27.0625H41.75C42.2678 27.0625 42.6875 26.6428 42.6875 26.125C42.6875 25.6072 42.2678 25.1875 41.75 25.1875H22.375ZM21.4375 36.125C21.4375 35.6072 21.8572 35.1875 22.375 35.1875H41.75C42.2678 35.1875 42.6875 35.6072 42.6875 36.125C42.6875 36.6428 42.2678 37.0625 41.75 37.0625H22.375C21.8572 37.0625 21.4375 36.6428 21.4375 36.125ZM22.375 18.9375C21.8572 18.9375 21.4375 19.3572 21.4375 19.875C21.4375 20.3928 21.8572 20.8125 22.375 20.8125H31.75C32.2678 20.8125 32.6875 20.3928 32.6875 19.875C32.6875 19.3572 32.2678 18.9375 31.75 18.9375H22.375ZM21.4375 29.875C21.4375 29.3572 21.8572 28.9375 22.375 28.9375H31.75C32.2678 28.9375 32.6875 29.3572 32.6875 29.875C32.6875 30.3928 32.2678 30.8125 31.75 30.8125H22.375C21.8572 30.8125 21.4375 30.3928 21.4375 29.875ZM22.375 38.9375C21.8572 38.9375 21.4375 39.3572 21.4375 39.875C21.4375 40.3928 21.8572 40.8125 22.375 40.8125H31.75C32.2678 40.8125 32.6875 40.3928 32.6875 39.875C32.6875 39.3572 32.2678 38.9375 31.75 38.9375H22.375Z" fill="#00A599"/>
<defs>
<linearGradient id="paint0_linear_0_1611" x1="0" y1="0" x2="56" y2="56" gradientUnits="userSpaceOnUse">
<stop stop-color="#00A599"/>
<stop offset="1" stop-color="#0093A3"/>
</linearGradient>
</defs>
</svg>
