<svg width="56" height="56" viewBox="0 0 56 56" fill="none" xmlns="http://www.w3.org/2000/svg">
<rect width="56" height="56" rx="12" fill="url(#paint0_linear_0_1599)" fill-opacity="0.1"/>
<path fill-rule="evenodd" clip-rule="evenodd" d="M27.9997 13.9375C22.0995 13.9375 17.0459 17.5714 14.959 22.7268C14.7648 23.2067 14.2182 23.4383 13.7383 23.244C13.2583 23.0497 13.0268 22.5032 13.221 22.0232C15.5846 16.1842 21.3097 12.0625 27.9997 12.0625C34.8121 12.0625 38.7414 16.007 41.4375 19.3038V17.375C41.4375 16.8572 41.8572 16.4375 42.375 16.4375C42.8928 16.4375 43.3125 16.8572 43.3125 17.375V21.75C43.3125 22.2678 42.8928 22.6875 42.375 22.6875H38C37.4822 22.6875 37.0625 22.2678 37.0625 21.75C37.0625 21.2322 37.4822 20.8125 38 20.8125H40.2461C37.612 17.5464 34.1481 13.9375 27.9997 13.9375ZM12.6875 38.625C12.6875 39.1428 13.1072 39.5625 13.625 39.5625C14.1428 39.5625 14.5625 39.1428 14.5625 38.625V36.6962C17.2586 39.993 21.1879 43.9375 28.0003 43.9375C34.6903 43.9375 40.4154 39.8158 42.779 33.9768C42.9732 33.4968 42.7417 32.9503 42.2617 32.756C41.7818 32.5617 41.2352 32.7933 41.041 33.2732C38.9541 38.4286 33.9005 42.0625 28.0003 42.0625C21.8519 42.0625 18.388 38.4536 15.7539 35.1875H18C18.5178 35.1875 18.9375 34.7678 18.9375 34.25C18.9375 33.7322 18.5178 33.3125 18 33.3125H13.625C13.1072 33.3125 12.6875 33.7322 12.6875 34.25V38.625ZM31.1033 22.8072C30.0597 21.7314 28.3488 21.3971 26.9553 21.6363C25.561 21.8756 24.0625 22.7992 24.0625 24.6195C24.0625 25.1957 24.2046 25.6934 24.4369 26.125H23.3125C22.9673 26.125 22.6875 26.4048 22.6875 26.75C22.6875 27.0952 22.9673 27.375 23.3125 27.375H25.5229C26.1537 27.8775 26.9175 28.2752 27.596 28.625H23.3125C22.9673 28.625 22.6875 28.9048 22.6875 29.25C22.6875 29.5952 22.9673 29.875 23.3125 29.875H29.678C30.1167 30.2563 30.3125 30.6219 30.3125 31.0626C30.3125 31.6172 30.1164 31.9797 29.8328 32.234C29.528 32.5073 29.0673 32.7011 28.4971 32.7773C27.3137 32.9355 26.0368 32.5486 25.4581 31.9521C25.1457 31.63 24.6313 31.6222 24.3092 31.9347C23.9871 32.2471 23.9794 32.7615 24.2918 33.0836C25.326 34.1496 27.1742 34.5936 28.7125 34.388C29.5032 34.2823 30.3026 33.9954 30.9177 33.4438C31.5539 32.8732 31.9375 32.0667 31.9375 31.0626C31.9375 30.6187 31.8448 30.2251 31.6886 29.875H32.0625C32.4077 29.875 32.6875 29.5952 32.6875 29.25C32.6875 28.9048 32.4077 28.625 32.0625 28.625H30.7168C30.7012 28.6116 30.6856 28.5984 30.6699 28.5853C30.1001 28.1084 29.3832 27.7197 28.7177 27.375H32.0625C32.4077 27.375 32.6875 27.0952 32.6875 26.75C32.6875 26.4048 32.4077 26.125 32.0625 26.125H26.5616C26.5017 26.0779 26.4441 26.03 26.3887 25.9813C25.9201 25.5683 25.6875 25.1503 25.6875 24.6195C25.6875 23.9448 26.2051 23.4138 27.2301 23.2379C28.256 23.0618 29.3676 23.3517 29.9369 23.9386C30.2494 24.2607 30.7638 24.2685 31.0859 23.9561C31.4079 23.6436 31.4158 23.1292 31.1033 22.8072Z" fill="#00A599"/>
<defs>
<linearGradient id="paint0_linear_0_1599" x1="0" y1="0" x2="56" y2="56" gradientUnits="userSpaceOnUse">
<stop stop-color="#00A599"/>
<stop offset="1" stop-color="#0093A3"/>
</linearGradient>
</defs>
</svg>
