<svg width="56" height="56" viewBox="0 0 56 56" fill="none" xmlns="http://www.w3.org/2000/svg">
<rect width="56" height="56" rx="12" fill="url(#paint0_linear_0_1605)" fill-opacity="0.1"/>
<path fill-rule="evenodd" clip-rule="evenodd" d="M13.9375 19.25C13.9375 17.6967 15.1967 16.4375 16.75 16.4375H39.25C40.8033 16.4375 42.0625 17.6967 42.0625 19.25V34.875C42.0625 36.4283 40.8033 37.6875 39.25 37.6875H30.1875L23.9375 42.375V37.6875H16.75C15.1967 37.6875 13.9375 36.4283 13.9375 34.875V19.25ZM16.75 14.5625C14.1612 14.5625 12.0625 16.6612 12.0625 19.25V34.875C12.0625 37.4638 14.1612 39.5625 16.75 39.5625H22.0625V43C22.0625 44.2876 23.5324 45.0225 24.5625 44.25L30.8125 39.5625H39.25C41.8388 39.5625 43.9375 37.4638 43.9375 34.875V19.25C43.9375 16.6612 41.8388 14.5625 39.25 14.5625H16.75ZM28 20.7501C25.5149 20.7501 23.7045 23.0148 23.7045 25.4167V27.7917C23.7045 28.4953 23.4115 29.1282 23.0609 29.6417C22.748 30.1 22.3527 30.5167 21.9578 30.8751H34.0421C33.6472 30.5167 33.2519 30.1 32.939 29.6417C32.5884 29.1282 32.2954 28.4953 32.2954 27.7917V25.4167C32.2954 23.0148 30.485 20.7501 28 20.7501ZM21.9545 25.4167C21.9545 22.277 24.3346 19.0001 28 19.0001C31.6653 19.0001 34.0454 22.277 34.0454 25.4167V27.7917C34.0454 28.0091 34.14 28.2972 34.3842 28.6549C34.6243 29.0066 34.9659 29.3619 35.3489 29.6953C35.9246 30.1964 35.9751 30.944 35.8115 31.471C35.6472 32.0004 35.1567 32.6251 34.3279 32.6251H31.375L31.3751 32.6429C31.3751 34.4496 29.7681 35.7501 28.0001 35.7501C26.232 35.7501 24.6251 34.4496 24.6251 32.6429L24.6251 32.6251H21.672C20.8432 32.6251 20.3527 32.0004 20.1884 31.471C20.0248 30.944 20.0753 30.1964 20.651 29.6953C21.034 29.3619 21.3756 29.0066 21.6157 28.6549C21.8599 28.2972 21.9545 28.0091 21.9545 27.7917V25.4167ZM26.3752 32.6251H29.6249L29.6251 32.6429C29.6251 33.3019 28.9934 34.0001 28.0001 34.0001C27.0067 34.0001 26.3751 33.3019 26.3751 32.6429L26.3752 32.6251Z" fill="#00A599"/>
<defs>
<linearGradient id="paint0_linear_0_1605" x1="0" y1="0" x2="56" y2="56" gradientUnits="userSpaceOnUse">
<stop stop-color="#00A599"/>
<stop offset="1" stop-color="#0093A3"/>
</linearGradient>
</defs>
</svg>
