<?xml version="1.0" encoding="utf-8"?>
<!-- Generator: Adobe Illustrator 26.3.1, SVG Export Plug-In . SVG Version: 6.00 Build 0)  -->
<svg version="1.1" baseProfile="tiny" id="Layer_1" xmlns="http://www.w3.org/2000/svg" xmlns:xlink="http://www.w3.org/1999/xlink"
	 x="0px" y="0px" viewBox="0 0 420.6 83.6" overflow="visible" xml:space="preserve">
<g id="XMLID_40_">
	<g id="XMLID_1360_">
		<g id="XMLID_1396_">
			<g id="XMLID_1406_">
				<polygon id="XMLID_1408_" fill="#33657F" points="36.8,35.5 40.6,11.7 28.5,-0.4 24.8,23.5 				"/>
				<polygon id="XMLID_1407_" fill="#00A599" points="13,39.3 36.8,35.5 24.8,23.5 0.9,27.2 				"/>
			</g>
			<g id="XMLID_1403_">
				<polygon id="XMLID_1405_" fill="#33657F" points="49,47.7 45.2,71.6 57.3,83.6 61.1,59.8 				"/>
				<polygon id="XMLID_1404_" fill="#00A599" points="72.9,43.9 49,47.7 61.1,59.8 84.9,56 				"/>
			</g>
			<g id="XMLID_1400_">
				<polygon id="XMLID_1402_" fill="#FFB701" points="45.2,11.7 49,35.5 61.1,23.5 57.3,-0.4 				"/>
				<polygon id="XMLID_1401_" fill="#EE7800" points="49,35.5 72.9,39.3 84.9,27.2 61.1,23.5 				"/>
			</g>
			<g id="XMLID_1397_">
				<polygon id="XMLID_1399_" fill="#FFB701" points="40.6,71.6 36.8,47.7 24.8,59.8 28.5,83.6 				"/>
				<polygon id="XMLID_1398_" fill="#EE7800" points="36.8,47.7 13,43.9 0.9,56 24.8,59.8 				"/>
			</g>
		</g>
		<g id="XMLID_1361_">
			<g id="XMLID_1385_">
				<path id="XMLID_1393_" fill="#283646" d="M121.9,21.2c0,5.5-4.1,9.1-9.9,9.1c-6.4,0-10.1-4.3-10.1-12.4c0-7.4,3.1-11.8,9.8-13.2
					l8.6-1.8l0.6,3.9l-7.8,1.6c-4.5,0.9-6.6,3-7,7.1c1.6-2,4.1-3.1,6.9-3.1C118.3,12.3,121.9,16,121.9,21.2z M117.5,21.4
					c0-3.2-2.2-5.3-5.4-5.3c-3.2,0-5.4,2.1-5.4,5.3c0,3.2,2.2,5.5,5.4,5.5S117.5,24.6,117.5,21.4z"/>
				<path id="XMLID_1390_" fill="#283646" d="M141.3,19.1V30h-4.1v-2.3c-1,1.6-3.1,2.5-5.9,2.5c-4.2,0-6.9-2.3-6.9-5.6
					c0-3.1,2.1-5.5,7.7-5.5h4.8v-0.3c0-2.5-1.5-4-4.6-4c-2.1,0-4.2,0.7-5.6,1.8l-1.7-3.2c2-1.5,4.9-2.3,7.9-2.3
					C138.2,11.2,141.3,13.8,141.3,19.1z M136.9,24.2V22h-4.5c-3,0-3.8,1.1-3.8,2.5c0,1.6,1.3,2.6,3.5,2.6
					C134.3,27.1,136.2,26.1,136.9,24.2z"/>
				<path id="XMLID_1388_" fill="#283646" d="M146.7,11.4h4.4V19h9.4v-7.5h4.4V30h-4.4v-7.3H151V30h-4.4V11.4z"/>
				<path id="XMLID_1386_" fill="#283646" d="M178.3,22.6h-3.4V30h-4.4V11.4h4.4V19h3.5l5.5-7.5h4.7l-6.8,8.9L189,30h-5.1
					L178.3,22.6z"/>
			</g>
			<g id="XMLID_1362_">
				<path id="XMLID_1383_" fill="#283646" d="M132.4,42v33.3h-6.1v-28H109v28H103V42H132.4z"/>
				<path id="XMLID_1381_" fill="#283646" d="M143.3,42h6.1v33.3h-6.1V42z"/>
				<path id="XMLID_1377_" fill="#283646" d="M188.6,66c0,5.8-4.3,9.2-12.6,9.2h-15.8V42h14.9c7.4,0,11.9,3,11.9,8.6
					c0,3.6-1.8,6.1-4.9,7.4C186.3,59.1,188.6,61.8,188.6,66z M166.3,56.2h8.3c4,0,6.1-1.6,6.1-4.7c0-3.1-2.1-4.8-6.1-4.8h-8.3V56.2z
					 M182.4,65.5c0-3.3-2.3-4.9-6.6-4.9h-9.5v9.8h9.5C180.1,70.5,182.4,68.9,182.4,65.5z"/>
				<path id="XMLID_1374_" fill="#283646" d="M229.6,70v12.3h-5.7v-7.1h-25.5v7.1h-5.8l0.1-12.3h1.4c4.5-0.2,5.6-7.8,5.9-17.5
					l0.4-10.6h24.4v28H229.6z M201.9,70h16.9V47.2h-13l-0.2,5.9C205.2,60.6,204.4,67.3,201.9,70z"/>
				<path id="XMLID_1372_" fill="#283646" d="M261.2,70v5.2h-25V42h24.3v5.2h-18.1v8.7h16.1v5.1h-16.1V70L261.2,70L261.2,70z"/>
				<path id="XMLID_1370_" fill="#283646" d="M299.1,42v33.3H293V61h-17.2v14.3h-6.2V42h6.2v13.7H293V42H299.1z"/>
				<path id="XMLID_1368_" fill="#283646" d="M339.5,42v33.3h-6.2V61h-17.2v14.3h-6.2V42h6.2v13.7h17.2V42H339.5z"/>
				<path id="XMLID_1366_" fill="#283646" d="M350.3,42h6.1v23.6L374.3,42h5.8v33.3h-6.1V51.7l-17.9,23.6h-5.8V42z"/>
				<path id="XMLID_1363_" fill="#283646" d="M390.9,42h6.1v23.6L414.8,42h5.8v33.3h-6.1V51.7l-17.9,23.6h-5.8V42z M397,32.8h4.3
					c0,2.4,1.6,3.7,4.3,3.7c2.7,0,4.3-1.3,4.4-3.7h4.3c0,4.4-3,6.9-8.7,6.9C399.9,39.7,397,37.3,397,32.8z"/>
			</g>
		</g>
	</g>
</g>
</svg>
