<svg width="64" height="64" viewBox="0 0 64 64" fill="none" xmlns="http://www.w3.org/2000/svg">
<g clip-path="url(#clip0_0_1697)">
<path fill-rule="evenodd" clip-rule="evenodd" d="M63.9998 35.2001L63.9974 36.5255L63.9934 37.5424L63.9878 38.3994L63.9806 39.1542L63.9718 39.8363L63.9614 40.4632L63.9494 41.0464L63.9357 41.5938L63.9205 42.1111L63.9037 42.6028L63.8853 43.0721L63.8653 43.5218L63.8436 43.9541L63.8204 44.3706L63.7955 44.773L63.7691 45.1625L63.741 45.5402L63.7113 45.9069L63.68 46.2635L63.6471 46.6107L63.6126 46.9492L63.5764 47.2794L63.5386 47.6019L63.4992 47.9171L63.4582 48.2254L63.4155 48.5271L63.3713 48.8227L63.3253 49.1123L63.2778 49.3962L63.2286 49.6747L63.1777 49.948L63.1253 50.2164L63.0711 50.4799L63.0154 50.7388L62.9579 50.9933L62.8988 51.2435L62.8381 51.4895L62.7757 51.7315L62.7116 51.9695L62.6458 52.2038L62.5784 52.4344L62.5092 52.6614L62.4384 52.885L62.3659 53.1051L62.2918 53.3219L62.2159 53.5355L62.1383 53.7459L62.059 53.9532L61.9779 54.1575L61.8952 54.3588L61.8107 54.5572L61.7245 54.7528L61.6366 54.9456L61.5469 55.1356L61.4554 55.3229L61.3622 55.5076L61.2672 55.6897L61.1704 55.8692L61.0719 56.0462L60.9715 56.2207L60.8694 56.3928L60.7654 56.5624L60.6596 56.7296L60.552 56.8945L60.4426 57.0571L60.3313 57.2174L60.2181 57.3754L60.1031 57.5312L59.9862 57.6848L59.8674 57.8362L59.7466 57.9854L59.624 58.1324L59.4994 58.2774L59.3729 58.4202L59.2444 58.561L59.114 58.6997L58.9815 58.8363L58.847 58.971L58.7105 59.1036L58.572 59.2342L58.4314 59.3629L58.2887 59.4895L58.144 59.6143L57.9971 59.7371L57.848 59.8579L57.6968 59.9769L57.5434 60.094L57.3878 60.2091L57.23 60.3225L57.0699 60.4339L56.9075 60.5435L56.7428 60.6513L56.5757 60.7572L56.4062 60.8613L56.2344 60.9636L56.0601 61.0641L55.8833 61.1627L55.704 61.2597L55.5221 61.3548L55.3376 61.4481L55.1505 61.5397L54.9607 61.6296L54.7681 61.7177L54.5728 61.804L54.3746 61.8886L54.1735 61.9715L53.9695 62.0527L53.7624 62.1321L53.5522 62.2099L53.3389 62.2859L53.1224 62.3602L52.9025 62.4328L52.6793 62.5038L52.4525 62.573L52.2222 62.6406L51.9882 62.7065L51.7505 62.7707L51.5088 62.8333L51.2631 62.8941L51.0133 62.9534L50.7592 63.0109L50.5006 63.0669L50.2374 63.1211L49.9695 63.1737L49.6965 63.2247L49.4185 63.274L49.135 63.3217L48.8458 63.3678L48.5508 63.4122L48.2496 63.455L47.9418 63.4961L47.6272 63.5357L47.3053 63.5736L46.9757 63.6099L46.6379 63.6445L46.2914 63.6776L45.9355 63.709L45.5696 63.7388L45.1929 63.767L44.8044 63.7936L44.4031 63.8186L43.9877 63.842L43.5568 63.8637L43.1085 63.8839L42.6408 63.9024L42.1511 63.9194L41.6359 63.9347L41.0911 63.9484L40.511 63.9606L39.8879 63.9711L39.2108 63.98L38.4626 63.9874L37.6153 63.9931L36.6146 63.9972L35.325 63.9997L28.93 64L27.5656 63.9977L26.5318 63.9939L25.6647 63.9884L24.9031 63.9813L24.216 63.9726L23.5851 63.9624L22.9987 63.9505L22.4487 63.937L21.9292 63.9219L21.4356 63.9052L20.9646 63.8869L20.5134 63.867L20.0799 63.8455L19.6621 63.8224L19.2586 63.7977L18.8682 63.7714L18.4896 63.7434L18.1221 63.7139L17.7646 63.6827L17.4167 63.6499L17.0776 63.6155L16.7467 63.5795L16.4236 63.5418L16.1079 63.5025L15.799 63.4616L15.4968 63.4191L15.2008 63.375L14.9107 63.3292L14.6263 63.2817L14.3474 63.2327L14.0737 63.182L13.8049 63.1296L13.541 63.0756L13.2817 63.02L13.0269 62.9627L12.7764 62.9037L12.5301 62.8431L12.2878 62.7808L12.0494 62.7168L11.8148 62.6512L11.5839 62.5839L11.3566 62.5149L11.1328 62.4442L10.9124 62.3719L10.6954 62.2978L10.4815 62.2221L10.2709 62.1446L10.0633 62.0654L9.85879 61.9846L9.65723 61.9019L9.45858 61.8176L9.26279 61.7315L9.0698 61.6437L8.87955 61.5542L8.692 61.4628L8.50711 61.3698L8.32482 61.2749L8.14511 61.1783L7.96792 61.0799L7.79322 60.9797L7.62097 60.8777L7.45114 60.7739L7.2837 60.6682L7.11861 60.5608L6.95585 60.4515L6.79538 60.3403L6.63718 60.2273L6.48122 60.1124L6.32748 59.9957L6.17593 59.877L6.02654 59.7564L5.8793 59.634L5.73419 59.5095L5.59118 59.3832L5.45025 59.2548L5.31139 59.1245L5.17457 58.9922L5.03978 58.8579L4.90701 58.7216L4.77623 58.5832L4.64743 58.4428L4.52059 58.3003L4.39571 58.1557L4.27276 58.0089L4.15173 57.8601L4.03262 57.709L3.9154 57.5558L3.80007 57.4004L3.68661 57.2427L3.57502 57.0828L3.46527 56.9206L3.35737 56.7561L3.2513 56.5892L3.14706 56.4199L3.04462 56.2483L2.94399 56.0742L2.84516 55.8976L2.74811 55.7185L2.65284 55.5368L2.55934 55.3525L2.4676 55.1656L2.37763 54.976L2.2894 54.7837L2.20291 54.5886L2.11816 54.3906L2.03513 54.1897L1.95383 53.9859L1.87425 53.7791L1.79638 53.5692L1.72022 53.3561L1.64576 53.1398L1.573 52.9203L1.50192 52.6973L1.43254 52.4708L1.36483 52.2408L1.2988 52.0071L1.23445 51.7696L1.17177 51.5283L1.11075 51.2829L1.05139 51.0334L0.993691 50.7797L0.937647 50.5215L0.883254 50.2587L0.830509 49.9911L0.77941 49.7186L0.729952 49.4409L0.682133 49.1578L0.635951 48.8692L0.591402 48.5746L0.548485 48.2739L0.507197 47.9667L0.467536 47.6526L0.429499 47.3313L0.393084 47.0023L0.35829 46.6652L0.325115 46.3194L0.293556 45.9643L0.263613 45.5993L0.235283 45.2234L0.208565 44.8359L0.183458 44.4356L0.15996 44.0214L0.13807 43.5918L0.117788 43.145L0.0991115 42.679L0.0820401 42.1911L0.0665729 41.6781L0.0527092 41.1358L0.0404481 40.5588L0.0297891 39.9395L0.0207317 39.2671L0.0132754 38.5255L0.00741976 37.6875L0.0031646 36.7022L0.000509663 35.4455L0 29.0659L0.00214525 27.6586L0.00589067 26.6069L0.0112364 25.7295L0.0181829 24.9608L0.0267302 24.2685L0.036879 23.6337L0.0486297 23.0441L0.0619829 22.4915L0.0769393 21.9696L0.0934996 21.4741L0.111665 21.0015L0.131436 20.5488L0.152813 20.1139L0.175798 19.6949L0.200393 19.2904L0.226597 18.8989L0.254414 18.5195L0.283843 18.151L0.314887 17.7929L0.347547 17.4442L0.381826 17.1044L0.417724 16.7729L0.455244 16.4492L0.494387 16.1328L0.535157 15.8235L0.577555 15.5207L0.621584 15.2242L0.667245 14.9337L0.714542 14.6489L0.763478 14.3695L0.814054 14.0954L0.866275 13.8263L0.920142 13.562L0.97566 13.3023L1.03283 13.0471L1.09166 12.7963L1.15215 12.5496L1.2143 12.307L1.27812 12.0683L1.34362 11.8334L1.41079 11.6023L1.47964 11.3747L1.55017 11.1506L1.6224 10.93L1.69632 10.7126L1.77194 10.4985L1.84926 10.2876L1.9283 10.0798L2.00905 9.87507L2.09152 9.67328L2.17572 9.4744L2.26166 9.27838L2.34933 9.08517L2.43875 8.8947L2.52993 8.70694L2.62286 8.52184L2.71757 8.33935L2.81405 8.15943L2.91232 7.98204L3.01237 7.80714L3.11423 7.6347L3.2179 7.46468L3.32339 7.29705L3.43071 7.13178L3.53986 6.96883L3.65086 6.80818L3.76373 6.6498L3.87846 6.49366L3.99508 6.33975L4.11359 6.18802L4.234 6.03846L4.35634 5.89105L4.4806 5.74577L4.60681 5.60259L4.73499 5.4615L4.86514 5.32247L4.99727 5.18549L5.13142 5.05055L5.26759 4.91761L5.4058 4.78667L5.54606 4.65771L5.68841 4.53072L5.83285 4.40568L5.97941 4.28258L6.12811 4.1614L6.27897 4.04214L6.43201 3.92477L6.58726 3.80929L6.74475 3.69568L6.90449 3.58394L7.06652 3.47405L7.23086 3.366L7.39755 3.25979L7.56661 3.15539L7.73809 3.05282L7.912 2.95204L8.08839 2.85306L8.2673 2.75587L8.44876 2.66046L8.63282 2.56682L8.81952 2.47495L9.0089 2.38483L9.20102 2.29646L9.39591 2.20983L9.59364 2.12494L9.79427 2.04178L9.99784 1.96035L10.2044 1.88063L10.4141 1.80262L10.6269 1.72633L10.8429 1.65173L11.0622 1.57883L11.285 1.50762L11.5111 1.4381L11.7409 1.37026L11.9743 1.3041L12.2114 1.23962L12.4524 1.1768L12.6975 1.11565L12.9467 1.05616L13.2001 0.998327L13.4579 0.942152L13.7204 0.887627L13.9875 0.834751L14.2597 0.783521L14.5369 0.733932L14.8195 0.685983L15.1077 0.639671L15.4018 0.594992L15.7021 0.551945L16.0087 0.510528L16.3223 0.470737L16.643 0.43257L16.9713 0.396027L17.3077 0.361104L17.6528 0.327799L18.0071 0.296112L18.3714 0.26604L18.7463 0.237582L19.1329 0.210736L19.5321 0.1855L19.9452 0.161874L20.3735 0.139857L20.8189 0.119446L21.2833 0.100642L21.7693 0.0834428L22.2802 0.0678479L22.8199 0.0538565L23.3939 0.0414678L24.0096 0.0306813L24.6772 0.0214963L25.4125 0.0139125L26.2414 0.00792945L27.212 0.00354686L28.4382 0.000764494L34.7918 0L36.2466 0.00201783L37.3171 0.00563582L38.2053 0.0108541L38.9812 0.0176731L39.6787 0.026093L40.3177 0.0361142L40.9105 0.0477373L41.4658 0.0609629L41.9899 0.0757916L42.4874 0.0922241L42.9618 0.110261L43.416 0.129904L43.8522 0.151154L44.2724 0.174011L44.678 0.198477L45.0705 0.224554L45.4509 0.252242L45.8201 0.281542L46.1791 0.312458L46.5285 0.344989L46.869 0.379139L47.2011 0.414908L47.5254 0.452298L47.8423 0.491313L48.1522 0.531953L48.4555 0.574221L48.7525 0.61812L49.0435 0.663651L49.3288 0.710818L49.6085 0.759623L49.8831 0.810068L50.1526 0.862158L50.4173 0.915894L50.6773 0.97128L50.9328 1.02832L51.184 1.08702L51.431 1.14737L51.6739 1.20939L51.9129 1.27308L52.1481 1.33844L52.3796 1.40548L52.6074 1.4742L52.8318 1.5446L53.0527 1.61669L53.2703 1.69047L53.4846 1.76596L53.6958 1.84315L53.9038 1.92204L54.1088 2.00266L54.3109 2.08499L54.51 2.16906L54.7062 2.25485L54.8997 2.34239L55.0903 2.43167L55.2783 2.52271L55.4636 2.6155L55.6463 2.71007L55.8264 2.8064L56.004 2.90453L56.1791 3.00444L56.3518 3.10616L56.522 3.20968L56.6898 3.31502L56.8553 3.42219L57.0184 3.5312L57.1792 3.64206L57.3378 3.75477L57.4941 3.86936L57.6482 3.98582L57.8001 4.10418L57.9498 4.22444L58.0974 4.34663L58.2428 4.47074L58.3862 4.59679L58.5275 4.72481L58.6666 4.8548L58.8038 4.98678L58.9389 5.12076L59.072 5.25677L59.2031 5.39482L59.3322 5.53492L59.4593 5.6771L59.5845 5.82137L59.7078 5.96776L59.8291 6.11629L59.9485 6.26698L60.0661 6.41985L60.1817 6.57492L60.2954 6.73223L60.4073 6.89179L60.5174 7.05363L60.6256 7.21779L60.7319 7.38429L60.8365 7.55317L60.9392 7.72444L61.0401 7.89816L61.1392 8.07436L61.2366 8.25306L61.3321 8.43432L61.4259 8.61817L61.5179 8.80466L61.6082 8.99382L61.6967 9.18572L61.7834 9.38039L61.8685 9.5779L61.9518 9.77829L62.0333 9.98162L62.1132 10.188L62.1913 10.3974L62.2678 10.6099L62.3425 10.8257L62.4155 11.0448L62.4869 11.2672L62.5565 11.4931L62.6245 11.7225L62.6908 11.9556L62.7554 12.1925L62.8184 12.4332L62.8797 12.6779L62.9393 12.9268L62.9972 13.1798L63.0535 13.4373L63.1082 13.6994L63.1612 13.9662L63.2126 14.2379L63.2623 14.5147L63.3104 14.7969L63.3568 15.0847L63.4016 15.3783L63.4448 15.678L63.4863 15.9842L63.5263 16.2971L63.5646 16.6173L63.6012 16.945L63.6363 17.2807L63.6697 17.6251L63.7015 17.9787L63.7317 18.3421L63.7603 18.7162L63.7873 19.1018L63.8127 19.4999L63.8364 19.9118L63.8586 20.3389L63.8791 20.7828L63.898 21.2456L63.9154 21.7299L63.9311 22.2386L63.9452 22.7759L63.9577 23.3469L63.9686 23.9589L63.9779 24.6219L63.9856 25.3511L63.9918 26.1712L63.9963 27.1277L63.9992 28.3256L63.9998 35.2001Z" fill="#00A599"/>
<path d="M38.5222 12.2502L33.1942 17.5782L35.0314 28.9692L40.3594 23.6412L38.5222 12.2502Z" fill="#FEFEFE"/>
<path d="M51.7503 25.4784L46.4223 30.8065L35.0314 28.9692L40.3594 23.6412L51.7503 25.4784Z" fill="#FEFEFE"/>
<path d="M38.5222 51.751L33.1942 46.423L35.0314 35.0321L40.3594 40.3601L38.5222 51.751Z" fill="#FEFEFE"/>
<path d="M51.7503 38.5228L46.4223 33.1948L35.0314 35.0321L40.3594 40.3601L51.7503 38.5228Z" fill="#FEFEFE"/>
<path d="M12.2496 38.5228L17.5776 33.1948L28.9685 35.0321L23.6405 40.3601L12.2496 38.5228Z" fill="#FEFEFE"/>
<path d="M25.4778 51.751L30.8058 46.423L28.9685 35.0321L23.6405 40.3601L25.4778 51.751Z" fill="#FEFEFE"/>
<path d="M12.2496 25.4785L17.5776 30.8065L28.9685 28.9692L23.6405 23.6412L12.2496 25.4785Z" fill="#FEFEFE"/>
<path d="M25.4778 12.2502L30.8058 17.5783L28.9685 28.9692L23.6405 23.6412L25.4778 12.2502Z" fill="#FEFEFE"/>
</g>
<defs>
<clipPath id="clip0_0_1697">
<rect width="63.9998" height="64" fill="white"/>
</clipPath>
</defs>
</svg>
