<svg width="1024" height="1024" viewBox="0 0 1024 1024" fill="none" xmlns="http://www.w3.org/2000/svg">
<path fill-rule="evenodd" clip-rule="evenodd" d="M1024 511.999L1023.99 563.199L1023.95 584.405L1023.88 600.674L1023.79 614.386L1023.68 626.462L1023.54 637.376L1023.37 647.406L1023.18 656.737L1022.96 665.496L1022.72 673.773L1022.45 681.639L1022.16 689.148L1021.83 696.344L1021.49 703.259L1021.12 709.924L1020.72 716.362L1020.3 722.594L1019.85 728.636L1019.37 734.504L1018.87 740.21L1018.34 745.765L1017.79 751.18L1017.21 756.464L1016.61 761.624L1015.98 766.667L1015.32 771.599L1014.64 776.427L1013.93 781.155L1013.2 785.789L1012.44 790.332L1011.65 794.788L1010.83 799.161L1009.99 803.454L1009.13 807.671L1008.24 811.814L1007.32 815.885L1006.37 819.888L1005.4 823.824L1004.4 827.695L1003.38 831.505L1002.32 835.253L1001.24 838.943L1000.14 842.575L999.006 846.151L997.846 849.673L996.659 853.142L995.445 856.559L994.203 859.925L992.934 863.242L991.638 866.511L990.314 869.732L988.963 872.907L987.583 876.036L986.176 879.12L984.741 882.16L983.278 885.158L981.786 888.113L980.266 891.026L978.718 893.898L977.141 896.73L975.536 899.522L973.902 902.275L972.238 904.989L970.546 907.665L968.824 910.303L967.073 912.904L965.292 915.469L963.482 917.997L961.641 920.49L959.771 922.947L957.87 925.369L955.938 927.756L953.976 930.109L951.983 932.428L949.958 934.714L947.903 936.966L945.815 939.185L943.696 941.371L941.545 943.525L939.361 945.647L937.144 947.737L934.895 949.795L932.612 951.822L930.295 953.818L927.945 955.783L925.56 957.717L923.141 959.62L920.687 961.493L918.197 963.336L915.672 965.149L913.11 966.932L910.512 968.685L907.877 970.409L905.204 972.104L902.493 973.77L899.743 975.406L896.954 977.014L894.125 978.593L891.257 980.144L888.347 981.666L885.395 983.159L882.401 984.625L879.364 986.062L876.283 987.472L873.158 988.853L869.987 990.207L866.77 991.533L863.505 992.832L860.192 994.103L856.829 995.347L853.416 996.563L849.952 997.752L846.434 998.914L842.862 1000.05L839.234 1001.16L835.549 1002.24L831.806 1003.29L828.002 1004.32L824.135 1005.32L820.204 1006.3L816.207 1007.24L812.141 1008.16L808.004 1009.06L803.793 1009.93L799.506 1010.77L795.139 1011.58L790.69 1012.37L786.154 1013.14L781.528 1013.87L776.808 1014.58L771.988 1015.27L767.064 1015.93L762.03 1016.56L756.88 1017.17L751.606 1017.75L746.202 1018.3L740.658 1018.83L734.964 1019.33L729.11 1019.81L723.082 1020.26L716.866 1020.69L710.445 1021.09L703.799 1021.46L696.904 1021.81L689.733 1022.13L682.25 1022.43L674.414 1022.7L666.172 1022.94L657.455 1023.16L648.174 1023.36L638.204 1023.53L627.37 1023.67L615.4 1023.79L601.843 1023.88L585.832 1023.94L565.199 1023.98L526.448 1024L462.881 1023.99L441.05 1023.95L424.51 1023.89L410.637 1023.8L398.451 1023.69L387.457 1023.55L377.364 1023.39L367.982 1023.2L359.182 1022.98L350.869 1022.74L342.972 1022.47L335.436 1022.18L328.218 1021.86L321.281 1021.52L314.597 1021.15L308.141 1020.75L301.894 1020.33L295.837 1019.88L289.956 1019.41L284.238 1018.91L278.671 1018.39L273.245 1017.84L267.951 1017.26L262.782 1016.66L257.73 1016.03L252.789 1015.37L247.953 1014.69L243.217 1013.99L238.576 1013.26L234.026 1012.5L229.563 1011.71L225.183 1010.9L220.884 1010.06L216.661 1009.2L212.513 1008.31L208.436 1007.39L204.427 1006.45L200.486 1005.48L196.609 1004.48L192.795 1003.46L189.042 1002.41L185.348 1001.33L181.711 1000.23L178.131 999.097L174.604 997.939L171.131 996.754L167.71 995.542L164.34 994.303L161.019 993.036L157.747 991.742L154.522 990.42L151.343 989.071L148.211 987.694L145.123 986.289L142.079 984.856L139.078 983.395L136.12 981.906L133.204 980.388L130.328 978.842L127.493 977.268L124.698 975.664L121.942 974.032L119.225 972.371L116.546 970.681L113.905 968.962L111.3 967.213L108.733 965.435L106.202 963.627L103.706 961.788L101.247 959.92L98.8218 958.022L96.4317 956.093L94.0759 954.133L91.7541 952.142L89.466 950.12L87.2112 948.067L84.9894 945.982L82.8004 943.866L80.6438 941.717L78.5195 939.535L76.427 937.322L74.3662 935.075L72.3369 932.794L70.3388 930.481L68.3717 928.133L66.4353 925.751L64.5295 923.335L62.654 920.883L60.8088 918.397L58.9935 915.874L57.208 913.315L55.4521 910.72L53.7257 908.088L52.0287 905.418L50.3607 902.709L48.7218 899.963L47.1118 897.177L45.5304 894.352L43.9777 891.486L42.4534 888.579L40.9574 885.631L39.4897 882.641L38.0501 879.607L36.6384 876.53L35.2546 873.408L33.8986 870.241L32.5703 867.027L31.2695 863.766L29.9962 860.457L28.7504 857.099L27.5318 853.69L26.3404 850.229L25.1762 846.716L24.0391 843.148L22.9289 839.525L21.8456 835.845L20.7892 832.106L19.7596 828.306L18.7566 824.445L17.7804 820.519L16.8307 816.527L15.9075 812.467L15.0108 808.335L14.1405 804.131L13.2966 799.85L12.4791 795.49L11.6877 791.047L10.9227 786.518L10.1838 781.899L9.47099 777.187L8.78433 772.375L8.12373 767.459L7.48916 762.434L6.88058 757.294L6.29796 752.03L5.74126 746.637L5.21047 741.104L4.70554 735.423L4.22645 729.582L3.77318 723.569L3.3457 717.368L2.94399 710.964L2.56804 704.337L2.21781 697.463L1.8933 690.314L1.59448 682.858L1.32134 675.052L1.07387 666.844L0.852054 658.168L0.655881 648.936L0.48534 639.027L0.340424 628.269L0.221125 616.403L0.127437 602.996L0.0593555 587.232L0.0168773 567.125L0 532.432L0.00872283 465.053L0.0430462 442.536L0.102972 425.71L0.188503 411.671L0.299643 399.373L0.436399 388.296L0.598777 378.139L0.786784 368.706L1.00043 359.864L1.23973 351.515L1.50469 343.587L1.79533 336.024L2.11165 328.781L2.45369 321.823L2.82145 315.12L3.21495 308.647L3.63422 302.384L4.07927 296.313L4.55013 290.418L5.04682 284.687L5.56938 279.108L6.11782 273.672L6.69218 268.368L7.29249 263.189L7.91878 258.128L8.57108 253.178L9.24944 248.334L9.95388 243.59L10.6845 238.942L11.4412 234.385L12.2241 229.915L13.0334 225.529L13.8689 221.223L14.7307 216.994L15.619 212.84L16.5337 208.757L17.475 204.744L18.4428 200.797L19.4372 196.915L20.4583 193.096L21.5062 189.338L22.5809 185.64L23.6825 181.998L24.8111 178.413L25.9666 174.883L27.1493 171.406L28.3592 167.98L29.5964 164.606L30.861 161.281L32.153 158.005L33.4725 154.776L34.8197 151.594L36.1946 148.458L37.5974 145.367L39.0281 142.319L40.4869 139.315L41.9738 136.354L43.4891 133.434L45.0327 130.555L46.605 127.717L48.2058 124.919L49.8356 122.16L51.4942 119.439L53.182 116.757L54.899 114.113L56.6455 111.506L58.4215 108.936L60.2273 106.402L62.063 103.903L63.9288 101.441L65.8249 99.0132L67.7515 96.6204L69.7089 94.2619L71.6971 91.9374L73.7164 89.6466L75.7672 87.3891L77.8495 85.1647L79.9637 82.9731L82.11 80.814L84.2886 78.687L86.4999 76.5921L88.7442 74.5288L91.0217 72.497L93.3327 70.4964L95.6776 68.5268L98.0567 66.588L100.47 64.6797L102.919 62.8019L105.403 60.9542L107.923 59.1365L110.479 57.3487L113.071 55.5905L115.7 53.8617L118.367 52.1623L121.072 50.4921L123.816 48.8509L126.598 47.2385L129.421 45.6549L132.283 44.0999L135.187 42.5733L138.131 41.0751L141.119 39.6051L144.149 38.1633L147.222 36.7494L150.341 35.3634L153.504 34.0052L156.714 32.6746L159.971 31.3717L163.277 30.0962L166.631 28.8482L170.036 27.6274L173.492 26.4339L177.002 25.2675L180.565 24.1282L184.183 23.0159L187.859 21.9305L191.593 20.8719L195.388 19.8402L199.244 18.8351L203.165 17.8567L207.151 16.9049L211.206 15.9796L215.332 15.0808L219.531 14.2085L223.805 13.3625L228.159 12.5428L232.595 11.7494L237.117 10.9822L241.728 10.2412L246.433 9.52639L251.237 8.83765L256.144 8.17498L261.16 7.53834L266.291 6.92769L271.545 6.343L276.928 5.78424L282.449 5.25138L288.118 4.74439L293.946 4.26325L299.945 3.80792L306.13 3.37839L312.517 2.97463L319.126 2.59663L325.979 2.24435L333.104 1.91779L340.535 1.61693L348.312 1.34175L356.485 1.09223L365.121 0.868373L374.305 0.670157L384.155 0.497576L394.837 0.350619L406.602 0.22928L419.863 0.133553L435.393 0.0634329L455.012 0.0189159L486.975 0L556.667 0.00668423L579.944 0.0389689L597.071 0.0968557L611.283 0.180348L623.697 0.289448L634.857 0.424164L645.08 0.584501L654.565 0.770468L663.45 0.982073L671.836 1.21933L679.795 1.48224L687.385 1.77084L694.652 2.08512L701.631 2.4251L708.354 2.79081L714.844 3.18226L721.124 3.59948L727.209 4.04248L733.117 4.51128L738.861 5.00592L744.452 5.52641L749.899 6.07279L755.214 6.64509L760.402 7.24333L765.473 7.86755L770.431 8.51778L775.283 9.19406L780.035 9.89642L784.691 10.6249L789.255 11.3796L793.731 12.1604L798.124 12.9675L802.436 13.801L806.671 14.6607L810.831 15.5469L814.919 16.4595L818.938 17.3986L822.89 18.3643L826.777 19.3566L830.601 20.3756L834.363 21.4214L838.067 22.4939L841.713 23.5934L845.302 24.7198L848.837 25.8732L852.318 27.0538L855.748 28.2615L859.126 29.4965L862.455 30.7589L865.735 32.0487L868.967 33.366L872.153 34.711L875.293 36.0837L878.388 37.4842L881.438 38.9127L884.446 40.3693L887.411 41.854L890.334 43.367L893.216 44.9084L896.057 46.4783L898.859 48.0769L901.621 49.7043L904.344 51.3607L907.029 53.0461L909.677 54.7608L912.287 56.5049L914.86 58.2786L917.397 60.082L919.898 61.9153L922.363 63.7787L924.794 65.6724L927.189 67.5966L929.551 69.5515L931.878 71.5372L934.171 73.5541L936.431 75.6023L938.658 77.6821L940.852 79.7937L943.014 81.9375L945.144 84.1135L947.241 86.3222L949.307 88.5638L951.341 90.8387L953.344 93.147L955.316 95.4892L957.258 97.8656L959.168 100.277L961.049 102.722L962.899 105.204L964.719 107.72L966.509 110.273L968.27 112.863L970.001 115.489L971.702 118.153L973.375 120.855L975.018 123.596L976.633 126.375L978.219 129.194L979.776 132.053L981.305 134.953L982.806 137.895L984.278 140.879L985.722 143.905L987.138 146.976L988.526 150.09L989.887 153.25L991.219 156.456L992.525 159.71L993.802 163.011L995.052 166.362L996.275 169.763L997.471 173.215L998.64 176.72L999.781 180.279L1000.9 183.893L1001.98 187.564L1003.04 191.293L1004.08 195.083L1005.08 198.935L1006.07 202.85L1007.02 206.831L1007.95 210.88L1008.85 215L1009.72 219.193L1010.57 223.462L1011.39 227.809L1012.19 232.238L1012.96 236.753L1013.7 241.357L1014.42 246.055L1015.11 250.85L1015.77 255.749L1016.41 260.756L1017.02 265.878L1017.61 271.121L1018.17 276.494L1018.71 282.003L1019.22 287.66L1019.7 293.475L1020.16 299.46L1020.59 305.63L1020.99 312L1021.37 318.59L1021.73 325.423L1022.06 332.526L1022.36 339.931L1022.64 347.678L1022.89 355.818L1023.11 364.414L1023.31 373.551L1023.49 383.342L1023.64 393.95L1023.76 405.617L1023.86 418.738L1023.93 434.042L1023.98 453.209L1024 483.103L1024 511.999Z" fill="url(#paint0_radial_505_26575)"/>
<path d="M616.352 196L531.106 281.246L560.501 463.497L645.748 378.251L616.352 196Z" fill="#FFDD00"/>
<path d="M827.999 407.647L742.752 492.893L560.501 463.498L645.748 378.252L827.999 407.647Z" fill="#F5C400"/>
<path d="M616.352 828L531.106 742.754L560.501 560.503L645.748 645.749L616.352 828Z" fill="#F5C400"/>
<path d="M827.998 616.353L742.752 531.107L560.501 560.502L645.747 645.748L827.998 616.353Z" fill="#FFDD00"/>
<path d="M196 616.353L281.246 531.107L463.497 560.502L378.251 645.748L196 616.353Z" fill="#F5C400"/>
<path d="M407.646 828L492.893 742.753L463.497 560.502L378.251 645.749L407.646 828Z" fill="#FFDD00"/>
<path d="M196 407.647L281.246 492.893L463.497 463.498L378.251 378.252L196 407.647Z" fill="#FFDD00"/>
<path d="M407.646 196L492.893 281.246L463.497 463.497L378.251 378.251L407.646 196Z" fill="#F5C400"/>
<defs>
<radialGradient id="paint0_radial_505_26575" cx="0" cy="0" r="1" gradientUnits="userSpaceOnUse" gradientTransform="translate(512 512) rotate(90) scale(661.5 661.501)">
<stop stop-color="#0057B7"/>
<stop offset="1" stop-color="#00408F"/>
</radialGradient>
</defs>
</svg>
