<svg width="181" height="49" viewBox="0 0 181 49" fill="none" xmlns="http://www.w3.org/2000/svg">
<path d="M20.2666 21.2057L22.4045 7.57195L15.5981 0.694336L13.4711 14.3281L20.2666 21.2057Z" fill="#008578"/>
<path d="M6.79551 23.3695L20.2665 21.2057L13.471 14.3281L0 16.4808L6.79551 23.3695Z" fill="#00B2A9"/>
<path d="M27.1603 28.1831L25.0223 41.8169L31.8288 48.6945L33.9558 35.0607L27.1603 28.1831Z" fill="#008578"/>
<path d="M40.6313 26.019L27.1603 28.1828L33.9558 35.0604L47.4268 32.9077L40.6313 26.019Z" fill="#00B2A9"/>
<path d="M25.0223 7.57195L27.1603 21.2057L33.9558 14.3281L31.8288 0.694336L25.0223 7.57195Z" fill="#00B2A9"/>
<path d="M27.1603 21.2057L40.6313 23.3695L47.4268 16.4808L33.9558 14.3281L27.1603 21.2057Z" fill="#008578"/>
<path d="M22.4045 41.8169L20.2666 28.1831L13.4711 35.0607L15.5981 48.6945L22.4045 41.8169Z" fill="#00B2A9"/>
<path d="M20.2665 28.1828L6.79551 26.019L0 32.9077L13.471 35.0604L20.2665 28.1828Z" fill="#008578"/>
<path d="M73.3545 10.3423C73.3436 10.2981 73.3217 10.2429 73.3108 10.1988C73.1581 9.71301 72.9509 9.26039 72.6782 8.84089C72.0346 7.82526 71.1075 7.04145 69.8967 6.50052C68.686 5.95958 67.268 5.68359 65.6427 5.68359H57.92V24.6936H61.3996V19.207H65.6427C67.268 19.207 68.686 18.942 69.8967 18.4011C71.1075 17.8491 72.0346 17.0653 72.6782 16.0497C73.3218 15.023 73.6381 13.8197 73.6381 12.4508C73.6381 11.6891 73.5399 10.9936 73.3545 10.3423ZM68.9478 15.2438C68.1515 15.8951 67.0062 16.2263 65.4791 16.2263H61.3996V8.6753H65.4791C67.0062 8.6753 68.1515 8.99544 68.9478 9.64678C69.1441 9.81237 69.3186 10 69.4713 10.1988C69.504 10.2429 69.5368 10.2981 69.5695 10.3423C69.9404 10.9163 70.1258 11.6118 70.1258 12.4508C70.1258 13.6652 69.7331 14.5925 68.9478 15.2438Z" fill="#253746"/>
<path d="M76.005 10.3427V24.694H79.3537V10.3427H76.005ZM79.2228 4.43655C78.8083 4.0612 78.2956 3.87354 77.6957 3.87354C77.0849 3.87354 76.5722 4.07224 76.1577 4.45863C75.7541 4.84501 75.5469 5.33075 75.5469 5.91584C75.5469 6.48989 75.7541 6.97563 76.1577 7.36202C76.5722 7.75944 77.0849 7.94711 77.6957 7.94711C78.3174 7.94711 78.8301 7.7484 79.2337 7.33994C79.6373 6.93148 79.8336 6.42366 79.8336 5.82752C79.8336 5.26451 79.6373 4.80085 79.2228 4.43655Z" fill="#253746"/>
<path d="M93.6321 10.3423L89.1054 20.9512L84.7095 10.3423H81.23L87.3165 24.6936H90.7742L96.8499 10.3423H93.6321Z" fill="#253746"/>
<path d="M109.023 4.54639V11.987C108.466 11.3357 107.79 10.8499 107.005 10.5188C106.841 10.4525 106.678 10.3863 106.503 10.3421C106.329 10.2869 106.143 10.2317 105.958 10.1986C105.467 10.0882 104.954 10.033 104.409 10.033C103.831 10.033 103.285 10.0882 102.762 10.1986C102.565 10.2317 102.369 10.2759 102.184 10.3421C101.66 10.4856 101.158 10.6844 100.689 10.9493C99.5876 11.5675 98.7259 12.4396 98.1041 13.5657C97.4715 14.6807 97.1552 15.9833 97.1552 17.4405C97.1552 18.9088 97.4715 20.2114 98.1041 21.3375C98.7259 22.4745 99.5876 23.3467 100.689 23.9649C101.791 24.5831 103.024 24.8812 104.409 24.8812C105.39 24.8812 106.285 24.7156 107.103 24.3733C107.91 24.0311 108.597 23.5123 109.154 22.8278V24.6935H112.371V4.54639H109.023ZM108.51 19.8361C108.139 20.5206 107.627 21.0504 106.983 21.4258C106.339 21.7901 105.609 21.9778 104.812 21.9778C104.005 21.9778 103.274 21.7901 102.631 21.4258C101.987 21.0504 101.486 20.5206 101.104 19.8361C100.733 19.1517 100.537 18.3458 100.537 17.4405C100.537 16.5353 100.733 15.7404 101.104 15.056C101.486 14.3715 101.987 13.8417 102.631 13.4663C103.274 13.091 104.005 12.9143 104.812 12.9143C105.609 12.9143 106.339 13.091 106.983 13.4663C107.627 13.8417 108.139 14.3715 108.51 15.056C108.881 15.7404 109.077 16.5353 109.077 17.4405C109.077 18.3458 108.881 19.1517 108.51 19.8361Z" fill="#253746"/>
<path d="M129.518 17.5295C129.518 16.0392 129.213 14.7365 128.591 13.5995C127.98 12.4734 127.119 11.5903 126.017 10.972C125.548 10.7071 125.057 10.4973 124.534 10.3428C124.337 10.2876 124.141 10.2324 123.945 10.1993C123.41 10.0889 122.854 10.0337 122.276 10.0337C121.698 10.0337 121.13 10.0889 120.607 10.1993C120.411 10.2324 120.214 10.2766 120.029 10.3428C119.483 10.4863 118.96 10.7071 118.469 10.9831C117.335 11.6123 116.462 12.4955 115.818 13.6326C115.186 14.7586 114.869 16.0392 114.869 17.4412C114.869 18.8763 115.197 20.1569 115.851 21.2829C116.506 22.42 117.433 23.3032 118.633 23.9324C119.821 24.5727 121.207 24.8818 122.788 24.8818C124.021 24.8818 125.134 24.6831 126.115 24.2857C127.097 23.8883 127.915 23.3032 128.559 22.5194L126.759 20.4329C125.733 21.4817 124.446 22.0115 122.865 22.0115C121.632 22.0115 120.596 21.6914 119.767 21.0732C118.938 20.4439 118.425 19.6049 118.229 18.5341H129.464C129.508 18.0925 129.518 17.7613 129.518 17.5295ZM118.196 16.282C118.36 15.2112 118.807 14.3501 119.549 13.7098C120.291 13.0696 121.207 12.7494 122.276 12.7494C123.366 12.7494 124.283 13.0696 125.014 13.7209C125.744 14.3722 126.181 15.2333 126.333 16.282H118.196Z" fill="#253746"/>
<path d="M144.495 11.6344C143.884 11.0383 143.153 10.6077 142.313 10.3428C142.139 10.2876 141.953 10.2324 141.757 10.1993C141.255 10.0889 140.721 10.0337 140.142 10.0337C139.553 10.0337 138.986 10.0889 138.463 10.1993C138.266 10.2324 138.081 10.2876 137.895 10.3428C137.688 10.398 137.492 10.4753 137.306 10.5525C136.467 10.8948 135.768 11.4026 135.212 12.065V10.3428H132.016V24.6942H135.365V17.3639C135.365 15.9509 135.725 14.869 136.445 14.1183C137.165 13.3676 138.135 12.9923 139.368 12.9923C140.459 12.9923 141.299 13.3124 141.888 13.9527C142.477 14.604 142.771 15.5534 142.771 16.823V24.6942H146.131V16.3814C146.131 14.2839 145.585 12.7053 144.495 11.6344Z" fill="#253746"/>
<path d="M161.991 11.6344C161.38 11.0383 160.649 10.6077 159.809 10.3428C159.635 10.2876 159.449 10.2324 159.253 10.1993C158.751 10.0889 158.217 10.0337 157.638 10.0337C157.039 10.0337 156.471 10.0889 155.948 10.1993C155.751 10.2434 155.566 10.2876 155.381 10.3428C155.184 10.398 154.988 10.4753 154.802 10.5525C153.952 10.8948 153.254 11.4026 152.708 12.065V10.3428H149.512V24.6942H152.861V17.3639C152.861 15.9509 153.221 14.869 153.941 14.1183C154.65 13.3676 155.631 12.9923 156.864 12.9923C157.955 12.9923 158.795 13.3124 159.384 13.9527C159.973 14.604 160.267 15.5534 160.267 16.823V24.6942H163.627V16.3814C163.627 14.2839 163.081 12.7053 161.991 11.6344Z" fill="#253746"/>
<path d="M177.141 10.1987L177.076 10.3422L172.615 20.9181L168.164 10.3422L168.099 10.1987H164.619L164.685 10.3422L170.869 24.7488L170.63 25.3228C170.302 26.0404 169.953 26.5593 169.571 26.8684C169.179 27.1775 168.699 27.332 168.099 27.332C167.652 27.332 167.215 27.2437 166.779 27.056C166.332 26.8794 165.961 26.6365 165.634 26.3274L164.292 28.8224C164.739 29.2419 165.317 29.562 166.016 29.8049C166.714 30.0367 167.412 30.1582 168.132 30.1582C169.397 30.1582 170.488 29.838 171.382 29.1867C172.277 28.5464 173.029 27.4424 173.662 25.8638L180.305 10.3422L180.37 10.1987H177.141Z" fill="#253746"/>
<path d="M67.5624 37.831C67.0934 37.0031 66.428 36.3628 65.5772 35.8991C65.2064 35.7004 64.8137 35.5458 64.3992 35.4354C64.2356 35.3802 64.072 35.3471 63.9084 35.325C63.5157 35.2367 63.1121 35.2036 62.6867 35.2036C62.2613 35.2036 61.8577 35.2367 61.4759 35.325C61.3123 35.3471 61.1487 35.3802 60.9851 35.4354C60.5706 35.5458 60.1888 35.7004 59.818 35.8991C58.9672 36.3628 58.3018 37.0031 57.8218 37.831C57.3419 38.6479 57.1019 39.5863 57.1019 40.6351C57.1019 41.6838 57.3419 42.6222 57.8218 43.4501C58.3018 44.2781 58.9672 44.9294 59.818 45.3931C60.6688 45.8567 61.6177 46.0886 62.6867 46.0886C63.7556 46.0886 64.7155 45.8567 65.5772 45.3931C66.428 44.9294 67.0934 44.2781 67.5624 43.4501C68.0424 42.6222 68.2823 41.6838 68.2823 40.6351C68.2823 39.5863 68.0424 38.6479 67.5624 37.831ZM64.9228 43.0417C64.3338 43.6488 63.592 43.9579 62.6867 43.9579C61.7813 43.9579 61.0396 43.6488 60.4506 43.0417C59.8725 42.4345 59.578 41.6286 59.578 40.6351C59.578 39.6415 59.8725 38.8356 60.4506 38.2284C61.0396 37.6213 61.7813 37.3122 62.6867 37.3122C63.592 37.3122 64.3338 37.6213 64.9228 38.2284C65.5118 38.8356 65.8063 39.6415 65.8063 40.6351C65.8063 41.6286 65.5118 42.4345 64.9228 43.0417Z" fill="#253746"/>
<path d="M79.6047 36.3738C79.1574 35.9433 78.6339 35.6231 78.0121 35.4354C77.8812 35.3913 77.7394 35.3471 77.5867 35.325C77.2268 35.2478 76.8341 35.2036 76.4196 35.2036C76.0051 35.2036 75.6015 35.2478 75.2307 35.325C75.0671 35.3471 74.9034 35.3913 74.7507 35.4354C74.6089 35.4796 74.4671 35.5238 74.3362 35.579C73.7254 35.8329 73.2127 36.2082 72.8092 36.6939V35.4354H70.464V45.9451H72.9291V40.5799C72.9291 39.5421 73.1909 38.7473 73.7145 38.1953C74.2381 37.6433 74.9471 37.3674 75.8524 37.3674C76.6487 37.3674 77.2704 37.6102 77.7067 38.0739C78.1321 38.5486 78.3503 39.2551 78.3503 40.1824V45.9451H80.8045V39.8623C80.8045 38.3168 80.4118 37.1576 79.6047 36.3738Z" fill="#253746"/>
<path d="M83.6622 31.1855V45.9454H86.1274V31.1855H83.6622Z" fill="#253746"/>
<path d="M89.0724 35.4355V45.9451H91.5266V35.4355H89.0724ZM91.4285 31.0969C91.1339 30.8209 90.7522 30.6885 90.3159 30.6885C89.8687 30.6885 89.4869 30.832 89.1924 31.119C88.887 31.406 88.7343 31.7593 88.7343 32.1788C88.7343 32.6093 88.887 32.9626 89.1924 33.2496C89.4869 33.5256 89.8687 33.6691 90.3159 33.6691C90.774 33.6691 91.1449 33.5256 91.4394 33.2276C91.7339 32.9295 91.8866 32.5542 91.8866 32.1236C91.8866 31.7151 91.7339 31.3729 91.4285 31.0969Z" fill="#253746"/>
<path d="M103.613 36.3738C103.165 35.9433 102.631 35.6231 102.009 35.4354C101.878 35.3913 101.736 35.3471 101.584 35.325C101.224 35.2367 100.842 35.2036 100.428 35.2036C100.002 35.2036 99.5986 35.2478 99.2277 35.325C99.0641 35.3471 98.9005 35.3913 98.7477 35.4354C98.6059 35.4796 98.4751 35.5238 98.3442 35.579C97.7333 35.8329 97.2207 36.2082 96.8062 36.6939V35.4354H94.4719V45.9451H96.9262V40.5799C96.9262 39.5421 97.1879 38.7473 97.7115 38.1953C98.2351 37.6433 98.955 37.3674 99.8603 37.3674C100.657 37.3674 101.278 37.6102 101.704 38.0739C102.14 38.5486 102.358 39.2551 102.358 40.1824V45.9451H104.812V39.8623C104.812 38.3168 104.409 37.1576 103.613 36.3738Z" fill="#253746"/>
<path d="M117.64 40.6903C117.64 39.6084 117.411 38.6479 116.964 37.82C116.506 36.992 115.884 36.3517 115.077 35.8881C114.728 35.6894 114.357 35.5348 113.964 35.4354C113.811 35.3802 113.659 35.3471 113.495 35.325C113.124 35.2367 112.731 35.2036 112.328 35.2036C111.924 35.2036 111.532 35.2367 111.161 35.325C110.997 35.3471 110.834 35.3802 110.681 35.4354C110.277 35.5348 109.906 35.7004 109.546 35.8991C108.717 36.3628 108.074 37.0141 107.605 37.8421C107.136 38.67 106.907 39.5973 106.907 40.6351C106.907 41.6838 107.147 42.6222 107.627 43.4501C108.107 44.2781 108.783 44.9294 109.655 45.3931C110.539 45.8567 111.553 46.0886 112.71 46.0886C113.615 46.0886 114.422 45.9451 115.142 45.647C115.862 45.36 116.462 44.9294 116.931 44.3554L115.611 42.8209C114.869 43.5936 113.92 43.98 112.764 43.98C111.859 43.98 111.106 43.7482 110.495 43.2956C109.885 42.8319 109.514 42.2137 109.361 41.4299H117.596C117.629 41.1098 117.64 40.8669 117.64 40.6903ZM109.35 39.785C109.459 39.0012 109.797 38.372 110.343 37.8973C110.877 37.4336 111.543 37.1907 112.328 37.1907C113.135 37.1907 113.8 37.4336 114.335 37.9083C114.88 38.383 115.197 39.0122 115.306 39.785H109.35Z" fill="#253746"/>
</svg>
